<?xml version="1.0" encoding="UTF-8" standalone="no"?>
<svg
   version="1.2"
   width="162.82mm"
   height="122.18mm"
   viewBox="0 0 16282 12218"
   preserveAspectRatio="xMidYMid"
   fill-rule="evenodd"
   stroke-width="28.222"
   stroke-linejoin="round"
   xml:space="preserve"
   id="svg534"
   sodipodi:docname="IE_vs_mdot.svg"
   inkscape:version="1.1.2 (0a00cf5339, 2022-02-04)"
   xmlns:inkscape="http://www.inkscape.org/namespaces/inkscape"
   xmlns:sodipodi="http://sodipodi.sourceforge.net/DTD/sodipodi-0.dtd"
   xmlns="http://www.w3.org/2000/svg"
   xmlns:svg="http://www.w3.org/2000/svg"
   xmlns:ooo="http://xml.openoffice.org/svg/export"><sodipodi:namedview
   id="namedview536"
   pagecolor="#ffffff"
   bordercolor="#666666"
   borderopacity="1.0"
   inkscape:pageshadow="2"
   inkscape:pageopacity="0.0"
   inkscape:pagecheckerboard="0"
   inkscape:document-units="mm"
   showgrid="false"
   inkscape:zoom="1.7995478"
   inkscape:cx="307.85512"
   inkscape:cy="230.33564"
   inkscape:window-width="2560"
   inkscape:window-height="1404"
   inkscape:window-x="2560"
   inkscape:window-y="0"
   inkscape:window-maximized="1"
   inkscape:current-layer="svg534" />
 <defs
   class="ClipPathGroup"
   id="defs8"><marker
   style="overflow:visible;"
   id="marker1923"
   refX="0.0"
   refY="0.0"
   orient="auto"
   inkscape:stockid="Arrow2Mend"
   inkscape:isstock="true"><path
     transform="scale(0.6) rotate(180) translate(0,0)"
     d="M 8.7185878,4.0337352 L -2.2072895,0.016013256 L 8.7185884,-4.0017078 C 6.9730900,-1.6296469 6.9831476,1.6157441 8.7185878,4.0337352 z "
     style="stroke:context-stroke;fill-rule:evenodd;fill:context-stroke;stroke-width:0.62500000;stroke-linejoin:round;"
     id="path1921" /></marker><marker
   style="overflow:visible;"
   id="marker1486"
   refX="0.0"
   refY="0.0"
   orient="auto"
   inkscape:stockid="Arrow2Mend"
   inkscape:isstock="true"><path
     transform="scale(0.6) rotate(180) translate(0,0)"
     d="M 8.7185878,4.0337352 L -2.2072895,0.016013256 L 8.7185884,-4.0017078 C 6.9730900,-1.6296469 6.9831476,1.6157441 8.7185878,4.0337352 z "
     style="stroke:context-stroke;fill-rule:evenodd;fill:context-stroke;stroke-width:0.62500000;stroke-linejoin:round;"
     id="path1252" /></marker><marker
   style="overflow:visible;"
   id="Arrow2Mend"
   refX="0.0"
   refY="0.0"
   orient="auto"
   inkscape:stockid="Arrow2Mend"
   inkscape:isstock="true"><path
     transform="scale(0.6) rotate(180) translate(0,0)"
     d="M 8.7185878,4.0337352 L -2.2072895,0.016013256 L 8.7185884,-4.0017078 C 6.9730900,-1.6296469 6.9831476,1.6157441 8.7185878,4.0337352 z "
     style="stroke:context-stroke;fill-rule:evenodd;fill:context-stroke;stroke-width:0.62500000;stroke-linejoin:round;"
     id="path39019" /></marker>
  <clipPath
   id="presentation_clip_path"
   clipPathUnits="userSpaceOnUse">
   <rect
   x="0"
   y="0"
   width="16282"
   height="12218"
   id="rect2" />
  </clipPath>
  <clipPath
   id="presentation_clip_path_shrink"
   clipPathUnits="userSpaceOnUse">
   <rect
   x="16"
   y="12"
   width="16250"
   height="12194"
   id="rect5" />
  </clipPath>
 <marker
   style="overflow:visible"
   id="marker1923-3"
   refX="0"
   refY="0"
   orient="auto"
   inkscape:stockid="Arrow2Mend"
   inkscape:isstock="true"><path
     transform="scale(-0.6)"
     d="M 8.7185878,4.0337352 -2.2072895,0.01601326 8.7185884,-4.0017078 c -1.7454984,2.3720609 -1.7354408,5.6174519 -6e-7,8.035443 z"
     style="fill:context-stroke;fill-rule:evenodd;stroke:context-stroke;stroke-width:0.625;stroke-linejoin:round"
     id="path1921-6" /></marker><marker
   style="overflow:visible"
   id="marker1923-3-5"
   refX="0"
   refY="0"
   orient="auto"
   inkscape:stockid="Arrow2Mend"
   inkscape:isstock="true"><path
     transform="scale(-0.6)"
     d="M 8.7185878,4.0337352 -2.2072895,0.01601326 8.7185884,-4.0017078 c -1.7454984,2.3720609 -1.7354408,5.6174519 -6e-7,8.035443 z"
     style="fill:context-stroke;fill-rule:evenodd;stroke:context-stroke;stroke-width:0.625;stroke-linejoin:round"
     id="path1921-6-3" /></marker></defs>
 <defs
   class="TextShapeIndex"
   id="defs12">
  <g
   ooo:slide="id1"
   ooo:id-list="id3 id4 id5"
   id="g10" />
 </defs>
 <defs
   class="EmbeddedBulletChars"
   id="defs44">
  <g
   id="bullet-char-template-57356"
   transform="scale(0.00048828125,-0.00048828125)">
   <path
   d="M 580,1141 L 1163,571 580,0 -4,571 580,1141 Z"
   id="path14" />
  </g>
  <g
   id="bullet-char-template-57354"
   transform="scale(0.00048828125,-0.00048828125)">
   <path
   d="M 8,1128 L 1137,1128 1137,0 8,0 8,1128 Z"
   id="path17" />
  </g>
  <g
   id="bullet-char-template-10146"
   transform="scale(0.00048828125,-0.00048828125)">
   <path
   d="M 174,0 L 602,739 174,1481 1456,739 174,0 Z M 1358,739 L 309,1346 659,739 1358,739 Z"
   id="path20" />
  </g>
  <g
   id="bullet-char-template-10132"
   transform="scale(0.00048828125,-0.00048828125)">
   <path
   d="M 2015,739 L 1276,0 717,0 1260,543 174,543 174,936 1260,936 717,1481 1274,1481 2015,739 Z"
   id="path23" />
  </g>
  <g
   id="bullet-char-template-10007"
   transform="scale(0.00048828125,-0.00048828125)">
   <path
   d="M 0,-2 C -7,14 -16,27 -25,37 L 356,567 C 262,823 215,952 215,954 215,979 228,992 255,992 264,992 276,990 289,987 310,991 331,999 354,1012 L 381,999 492,748 772,1049 836,1024 860,1049 C 881,1039 901,1025 922,1006 886,937 835,863 770,784 769,783 710,716 594,584 L 774,223 C 774,196 753,168 711,139 L 727,119 C 717,90 699,76 672,76 641,76 570,178 457,381 L 164,-76 C 142,-110 111,-127 72,-127 30,-127 9,-110 8,-76 1,-67 -2,-52 -2,-32 -2,-23 -1,-13 0,-2 Z"
   id="path26" />
  </g>
  <g
   id="bullet-char-template-10004"
   transform="scale(0.00048828125,-0.00048828125)">
   <path
   d="M 285,-33 C 182,-33 111,30 74,156 52,228 41,333 41,471 41,549 55,616 82,672 116,743 169,778 240,778 293,778 328,747 346,684 L 369,508 C 377,444 397,411 428,410 L 1163,1116 C 1174,1127 1196,1133 1229,1133 1271,1133 1292,1118 1292,1087 L 1292,965 C 1292,929 1282,901 1262,881 L 442,47 C 390,-6 338,-33 285,-33 Z"
   id="path29" />
  </g>
  <g
   id="bullet-char-template-9679"
   transform="scale(0.00048828125,-0.00048828125)">
   <path
   d="M 813,0 C 632,0 489,54 383,161 276,268 223,411 223,592 223,773 276,916 383,1023 489,1130 632,1184 813,1184 992,1184 1136,1130 1245,1023 1353,916 1407,772 1407,592 1407,412 1353,268 1245,161 1136,54 992,0 813,0 Z"
   id="path32" />
  </g>
  <g
   id="bullet-char-template-8226"
   transform="scale(0.00048828125,-0.00048828125)">
   <path
   d="M 346,457 C 273,457 209,483 155,535 101,586 74,649 74,723 74,796 101,859 155,911 209,963 273,989 346,989 419,989 480,963 531,910 582,859 608,796 608,723 608,648 583,586 532,535 482,483 420,457 346,457 Z"
   id="path35" />
  </g>
  <g
   id="bullet-char-template-8211"
   transform="scale(0.00048828125,-0.00048828125)">
   <path
   d="M -4,459 L 1135,459 1135,606 -4,606 -4,459 Z"
   id="path38" />
  </g>
  <g
   id="bullet-char-template-61548"
   transform="scale(0.00048828125,-0.00048828125)">
   <path
   d="M 173,740 C 173,903 231,1043 346,1159 462,1274 601,1332 765,1332 928,1332 1067,1274 1183,1159 1299,1043 1357,903 1357,740 1357,577 1299,437 1183,322 1067,206 928,148 765,148 601,148 462,206 346,322 231,437 173,577 173,740 Z"
   id="path41" />
  </g>
 </defs>
 <g
   id="g49">
  <g
   id="id2"
   class="Master_Slide">
   <g
   id="bg-id2"
   class="Background" />
   <g
   id="bo-id2"
   class="BackgroundObjects" />
  </g>
 </g>
 <g
   class="SlideGroup"
   id="g532">
  <g
   id="g530">
   <g
   id="container-id1">
    <g
   id="id1"
   class="Slide"
   clip-path="url(#presentation_clip_path)">
     <g
   class="Page"
   id="g526">
      <g
   class="Graphic"
   id="g510">
       <g
   id="id3">
        <rect
   class="BoundingBox"
   stroke="none"
   fill="none"
   x="0"
   y="0"
   width="16282"
   height="12218"
   id="rect51" />
        <path
   fill="rgb(255,255,255)"
   stroke="none"
   d="M 13,12204 L 16268,12204 16268,13 13,13 13,12204 Z"
   id="path53" />
        <path
   fill="rgb(255,255,255)"
   stroke="none"
   d="M 2045,10863 L 14642,10863 14642,1476 2045,1476 2045,10863 Z"
   id="path55" />
        <path
   fill="none"
   stroke="rgb(0,0,0)"
   stroke-width="28"
   stroke-linejoin="round"
   d="M 2327,10863 L 2327,10986"
   id="path57" />
        <path
   fill="rgb(0,0,0)"
   stroke="none"
   d="M 2141,11121 L 2277,11121 2277,11150 2173,11150 2173,11213 C 2178,11211 2183,11210 2188,11209 2193,11208 2198,11208 2203,11208 2232,11208 2254,11216 2271,11231 2288,11247 2296,11268 2296,11295 2296,11323 2288,11344 2271,11360 2253,11375 2229,11383 2198,11383 2187,11383 2176,11382 2165,11380 2153,11378 2142,11375 2130,11372 L 2130,11337 C 2140,11342 2151,11347 2162,11349 2173,11352 2185,11353 2197,11353 2217,11353 2233,11348 2244,11338 2256,11327 2262,11313 2262,11295 2262,11277 2256,11263 2244,11253 2233,11242 2217,11237 2197,11237 2188,11237 2178,11238 2169,11240 2160,11242 2150,11245 2141,11250 L 2141,11121 2141,11121 Z"
   id="path59" />
        <path
   fill="rgb(0,0,0)"
   stroke="none"
   d="M 2439,11144 C 2421,11144 2408,11152 2399,11170 2390,11188 2385,11214 2385,11249 2385,11285 2390,11311 2399,11329 2408,11346 2421,11355 2439,11355 2457,11355 2471,11346 2480,11329 2489,11311 2493,11285 2493,11249 2493,11214 2489,11188 2480,11170 2471,11152 2457,11144 2439,11144 L 2439,11144 Z M 2439,11116 C 2468,11116 2490,11127 2505,11150 2521,11173 2528,11206 2528,11249 2528,11293 2521,11326 2505,11349 2490,11371 2468,11383 2439,11383 2410,11383 2388,11371 2373,11349 2358,11326 2350,11293 2350,11249 2350,11206 2358,11173 2373,11150 2388,11127 2410,11116 2439,11116 L 2439,11116 Z"
   id="path61" />
        <path
   fill="none"
   stroke="rgb(0,0,0)"
   stroke-width="28"
   stroke-linejoin="round"
   d="M 4402,10863 L 4402,10986"
   id="path63" />
        <path
   fill="rgb(0,0,0)"
   stroke="none"
   d="M 4109,11348 L 4166,11348 4166,11152 4104,11165 4104,11133 4165,11121 4200,11121 4200,11348 4257,11348 4257,11378 4109,11378 4109,11348 4109,11348 Z"
   id="path65" />
        <path
   fill="rgb(0,0,0)"
   stroke="none"
   d="M 4402,11144 C 4384,11144 4370,11152 4361,11170 4352,11188 4348,11214 4348,11249 4348,11285 4352,11311 4361,11329 4370,11346 4384,11355 4402,11355 4420,11355 4433,11346 4442,11329 4451,11311 4456,11285 4456,11249 4456,11214 4451,11188 4442,11170 4433,11152 4420,11144 4402,11144 L 4402,11144 Z M 4402,11116 C 4431,11116 4453,11127 4468,11150 4483,11173 4491,11206 4491,11249 4491,11293 4483,11326 4468,11349 4453,11371 4431,11383 4402,11383 4373,11383 4351,11371 4336,11349 4320,11326 4313,11293 4313,11249 4313,11206 4320,11173 4336,11150 4351,11127 4373,11116 4402,11116 L 4402,11116 Z"
   id="path67" />
        <path
   fill="rgb(0,0,0)"
   stroke="none"
   d="M 4626,11144 C 4608,11144 4595,11152 4586,11170 4577,11188 4572,11214 4572,11249 4572,11285 4577,11311 4586,11329 4595,11346 4608,11355 4626,11355 4644,11355 4658,11346 4667,11329 4676,11311 4680,11285 4680,11249 4680,11214 4676,11188 4667,11170 4658,11152 4644,11144 4626,11144 L 4626,11144 Z M 4626,11116 C 4655,11116 4677,11127 4692,11150 4707,11173 4715,11206 4715,11249 4715,11293 4707,11326 4692,11349 4677,11371 4655,11383 4626,11383 4597,11383 4575,11371 4560,11349 4545,11326 4537,11293 4537,11249 4537,11206 4545,11173 4560,11150 4575,11127 4597,11116 4626,11116 L 4626,11116 Z"
   id="path69" />
        <path
   fill="none"
   stroke="rgb(0,0,0)"
   stroke-width="28"
   stroke-linejoin="round"
   d="M 6476,10863 L 6476,10986"
   id="path71" />
        <path
   fill="rgb(0,0,0)"
   stroke="none"
   d="M 6184,11348 L 6240,11348 6240,11152 6179,11165 6179,11133 6240,11121 6275,11121 6275,11348 6332,11348 6332,11378 6184,11378 6184,11348 6184,11348 Z"
   id="path73" />
        <path
   fill="rgb(0,0,0)"
   stroke="none"
   d="M 6402,11121 L 6539,11121 6539,11150 6434,11150 6434,11213 C 6439,11211 6444,11210 6449,11209 6454,11208 6459,11208 6465,11208 6493,11208 6516,11216 6533,11231 6550,11247 6558,11268 6558,11295 6558,11323 6549,11344 6532,11360 6515,11375 6491,11383 6459,11383 6448,11383 6437,11382 6426,11380 6415,11378 6403,11375 6392,11372 L 6392,11337 C 6402,11342 6413,11347 6424,11349 6435,11352 6446,11353 6458,11353 6478,11353 6494,11348 6506,11338 6517,11327 6523,11313 6523,11295 6523,11277 6517,11263 6506,11253 6494,11242 6478,11237 6458,11237 6449,11237 6440,11238 6431,11240 6421,11242 6412,11245 6402,11250 L 6402,11121 6402,11121 Z"
   id="path75" />
        <path
   fill="rgb(0,0,0)"
   stroke="none"
   d="M 6701,11144 C 6683,11144 6669,11152 6660,11170 6651,11188 6647,11214 6647,11249 6647,11285 6651,11311 6660,11329 6669,11346 6683,11355 6701,11355 6719,11355 6732,11346 6741,11329 6750,11311 6755,11285 6755,11249 6755,11214 6750,11188 6741,11170 6732,11152 6719,11144 6701,11144 L 6701,11144 Z M 6701,11116 C 6730,11116 6752,11127 6767,11150 6782,11173 6790,11206 6790,11249 6790,11293 6782,11326 6767,11349 6752,11371 6730,11383 6701,11383 6672,11383 6650,11371 6635,11349 6620,11326 6612,11293 6612,11249 6612,11206 6620,11173 6635,11150 6650,11127 6672,11116 6701,11116 L 6701,11116 Z"
   id="path77" />
        <path
   fill="none"
   stroke="rgb(0,0,0)"
   stroke-width="28"
   stroke-linejoin="round"
   d="M 8551,10863 L 8551,10986"
   id="path79" />
        <path
   fill="rgb(0,0,0)"
   stroke="none"
   d="M 8282,11348 L 8404,11348 8404,11378 8240,11378 8240,11348 C 8254,11335 8272,11316 8294,11293 8317,11270 8331,11256 8337,11249 8348,11236 8356,11226 8361,11217 8365,11208 8367,11200 8367,11192 8367,11178 8362,11167 8353,11158 8343,11150 8331,11145 8315,11145 8305,11145 8293,11147 8281,11151 8269,11155 8256,11160 8242,11168 L 8242,11133 C 8256,11127 8269,11123 8281,11120 8293,11117 8305,11116 8315,11116 8341,11116 8363,11123 8378,11136 8394,11149 8402,11167 8402,11189 8402,11200 8400,11210 8396,11219 8392,11229 8385,11240 8375,11253 8372,11256 8363,11266 8347,11282 8332,11298 8310,11320 8282,11348 L 8282,11348 Z"
   id="path81" />
        <path
   fill="rgb(0,0,0)"
   stroke="none"
   d="M 8551,11144 C 8533,11144 8520,11152 8511,11170 8502,11188 8497,11214 8497,11249 8497,11285 8502,11311 8511,11329 8520,11346 8533,11355 8551,11355 8569,11355 8583,11346 8592,11329 8601,11311 8605,11285 8605,11249 8605,11214 8601,11188 8592,11170 8583,11152 8569,11144 8551,11144 L 8551,11144 Z M 8551,11116 C 8580,11116 8602,11127 8617,11150 8632,11173 8640,11206 8640,11249 8640,11293 8632,11326 8617,11349 8602,11371 8580,11383 8551,11383 8522,11383 8500,11371 8485,11349 8470,11326 8462,11293 8462,11249 8462,11206 8470,11173 8485,11150 8500,11127 8522,11116 8551,11116 L 8551,11116 Z"
   id="path83" />
        <path
   fill="rgb(0,0,0)"
   stroke="none"
   d="M 8775,11144 C 8758,11144 8744,11152 8735,11170 8726,11188 8722,11214 8722,11249 8722,11285 8726,11311 8735,11329 8744,11346 8758,11355 8775,11355 8793,11355 8807,11346 8816,11329 8825,11311 8830,11285 8830,11249 8830,11214 8825,11188 8816,11170 8807,11152 8793,11144 8775,11144 L 8775,11144 Z M 8775,11116 C 8804,11116 8826,11127 8842,11150 8857,11173 8864,11206 8864,11249 8864,11293 8857,11326 8842,11349 8826,11371 8804,11383 8775,11383 8747,11383 8725,11371 8709,11349 8694,11326 8687,11293 8687,11249 8687,11206 8694,11173 8709,11150 8725,11127 8747,11116 8775,11116 L 8775,11116 Z"
   id="path85" />
        <path
   fill="none"
   stroke="rgb(0,0,0)"
   stroke-width="28"
   stroke-linejoin="round"
   d="M 10626,10863 L 10626,10986"
   id="path87" />
        <path
   fill="rgb(0,0,0)"
   stroke="none"
   d="M 10357,11348 L 10478,11348 10478,11378 10315,11378 10315,11348 C 10328,11335 10346,11316 10369,11293 10392,11270 10406,11256 10412,11249 10423,11236 10431,11226 10435,11217 10440,11208 10442,11200 10442,11192 10442,11178 10437,11167 10428,11158 10418,11150 10405,11145 10390,11145 10379,11145 10368,11147 10356,11151 10343,11155 10330,11160 10317,11168 L 10317,11133 C 10331,11127 10344,11123 10356,11120 10368,11117 10379,11116 10389,11116 10416,11116 10437,11123 10453,11136 10469,11149 10477,11167 10477,11189 10477,11200 10475,11210 10471,11219 10467,11229 10460,11240 10449,11253 10446,11256 10437,11266 10422,11282 10407,11298 10385,11320 10357,11348 L 10357,11348 Z"
   id="path89" />
        <path
   fill="rgb(0,0,0)"
   stroke="none"
   d="M 10552,11121 L 10688,11121 10688,11150 10584,11150 10584,11213 C 10589,11211 10594,11210 10599,11209 10604,11208 10609,11208 10614,11208 10643,11208 10665,11216 10682,11231 10699,11247 10707,11268 10707,11295 10707,11323 10699,11344 10681,11360 10664,11375 10640,11383 10608,11383 10598,11383 10587,11382 10575,11380 10564,11378 10553,11375 10541,11372 L 10541,11337 C 10551,11342 10562,11347 10573,11349 10584,11352 10595,11353 10608,11353 10628,11353 10643,11348 10655,11338 10667,11327 10672,11313 10672,11295 10672,11277 10667,11263 10655,11253 10643,11242 10628,11237 10608,11237 10598,11237 10589,11238 10580,11240 10571,11242 10561,11245 10552,11250 L 10552,11121 10552,11121 Z"
   id="path91" />
        <path
   fill="rgb(0,0,0)"
   stroke="none"
   d="M 10850,11144 C 10832,11144 10819,11152 10810,11170 10801,11188 10796,11214 10796,11249 10796,11285 10801,11311 10810,11329 10819,11346 10832,11355 10850,11355 10868,11355 10882,11346 10891,11329 10900,11311 10904,11285 10904,11249 10904,11214 10900,11188 10891,11170 10882,11152 10868,11144 10850,11144 L 10850,11144 Z M 10850,11116 C 10879,11116 10901,11127 10916,11150 10931,11173 10939,11206 10939,11249 10939,11293 10931,11326 10916,11349 10901,11371 10879,11383 10850,11383 10821,11383 10799,11371 10784,11349 10769,11326 10761,11293 10761,11249 10761,11206 10769,11173 10784,11150 10799,11127 10821,11116 10850,11116 L 10850,11116 Z"
   id="path93" />
        <path
   fill="none"
   stroke="rgb(0,0,0)"
   stroke-width="28"
   stroke-linejoin="round"
   d="M 12700,10863 L 12700,10986"
   id="path95" />
        <path
   fill="rgb(0,0,0)"
   stroke="none"
   d="M 12507,11239 C 12524,11243 12537,11250 12546,11261 12555,11273 12560,11286 12560,11303 12560,11328 12551,11348 12534,11362 12516,11376 12492,11383 12459,11383 12449,11383 12438,11382 12426,11380 12415,11377 12403,11374 12391,11370 L 12391,11336 C 12400,11342 12411,11346 12422,11349 12434,11352 12446,11353 12458,11353 12480,11353 12497,11349 12508,11341 12520,11332 12525,11319 12525,11303 12525,11288 12520,11276 12509,11267 12499,11259 12484,11255 12465,11255 L 12435,11255 12435,11226 12466,11226 C 12484,11226 12497,11223 12506,11216 12515,11209 12519,11199 12519,11186 12519,11173 12515,11163 12505,11156 12496,11149 12483,11145 12465,11145 12456,11145 12445,11146 12434,11148 12423,11150 12411,11154 12398,11158 L 12398,11127 C 12412,11123 12424,11121 12436,11119 12447,11117 12458,11116 12468,11116 12495,11116 12515,11122 12531,11134 12546,11146 12554,11162 12554,11183 12554,11197 12550,11209 12542,11219 12534,11229 12522,11235 12507,11239 L 12507,11239 Z"
   id="path97" />
        <path
   fill="rgb(0,0,0)"
   stroke="none"
   d="M 12700,11144 C 12682,11144 12669,11152 12660,11170 12651,11188 12646,11214 12646,11249 12646,11285 12651,11311 12660,11329 12669,11346 12682,11355 12700,11355 12718,11355 12732,11346 12741,11329 12750,11311 12754,11285 12754,11249 12754,11214 12750,11188 12741,11170 12732,11152 12718,11144 12700,11144 L 12700,11144 Z M 12700,11116 C 12729,11116 12751,11127 12766,11150 12782,11173 12789,11206 12789,11249 12789,11293 12782,11326 12766,11349 12751,11371 12729,11383 12700,11383 12672,11383 12650,11371 12634,11349 12619,11326 12611,11293 12611,11249 12611,11206 12619,11173 12634,11150 12650,11127 12672,11116 12700,11116 L 12700,11116 Z"
   id="path99" />
        <path
   fill="rgb(0,0,0)"
   stroke="none"
   d="M 12925,11144 C 12907,11144 12893,11152 12884,11170 12875,11188 12871,11214 12871,11249 12871,11285 12875,11311 12884,11329 12893,11346 12907,11355 12925,11355 12943,11355 12956,11346 12965,11329 12974,11311 12979,11285 12979,11249 12979,11214 12974,11188 12965,11170 12956,11152 12943,11144 12925,11144 L 12925,11144 Z M 12925,11116 C 12954,11116 12976,11127 12991,11150 13006,11173 13014,11206 13014,11249 13014,11293 13006,11326 12991,11349 12976,11371 12954,11383 12925,11383 12896,11383 12874,11371 12859,11349 12844,11326 12836,11293 12836,11249 12836,11206 12844,11173 12859,11150 12874,11127 12896,11116 12925,11116 L 12925,11116 Z"
   id="path101" />
        <path
   fill="none"
   stroke="rgb(0,0,0)"
   stroke-width="28"
   stroke-linejoin="round"
   d="M 2045,10655 L 1922,10655"
   id="path103" />
        <path
   fill="rgb(0,0,0)"
   stroke="none"
   d="M 1349,10555 C 1331,10555 1318,10564 1309,10581 1300,10599 1295,10625 1295,10661 1295,10696 1300,10722 1309,10740 1318,10758 1331,10766 1349,10766 1367,10766 1381,10758 1390,10740 1399,10722 1403,10696 1403,10661 1403,10625 1399,10599 1390,10581 1381,10564 1367,10555 1349,10555 L 1349,10555 Z M 1349,10527 C 1378,10527 1400,10539 1415,10561 1431,10584 1438,10617 1438,10661 1438,10704 1431,10737 1415,10760 1400,10783 1378,10794 1349,10794 1320,10794 1298,10783 1283,10760 1268,10737 1260,10704 1260,10661 1260,10617 1268,10584 1283,10561 1298,10539 1320,10527 1349,10527 L 1349,10527 Z"
   id="path105" />
        <path
   fill="rgb(0,0,0)"
   stroke="none"
   d="M 1499,10745 L 1536,10745 1536,10789 1499,10789 1499,10745 1499,10745 Z"
   id="path107" />
        <path
   fill="rgb(0,0,0)"
   stroke="none"
   d="M 1686,10555 C 1668,10555 1654,10564 1645,10581 1636,10599 1632,10625 1632,10661 1632,10696 1636,10722 1645,10740 1654,10758 1668,10766 1686,10766 1704,10766 1717,10758 1726,10740 1735,10722 1740,10696 1740,10661 1740,10625 1735,10599 1726,10581 1717,10564 1704,10555 1686,10555 L 1686,10555 Z M 1686,10527 C 1715,10527 1737,10539 1752,10561 1767,10584 1775,10617 1775,10661 1775,10704 1767,10737 1752,10760 1737,10783 1715,10794 1686,10794 1657,10794 1635,10783 1620,10760 1605,10737 1597,10704 1597,10661 1597,10617 1605,10584 1620,10561 1635,10539 1657,10527 1686,10527 L 1686,10527 Z"
   id="path109" />
        <path
   fill="none"
   stroke="rgb(0,0,0)"
   stroke-width="28"
   stroke-linejoin="round"
   d="M 2045,9561 L 1922,9561"
   id="path111" />
        <path
   fill="rgb(0,0,0)"
   stroke="none"
   d="M 1349,9461 C 1331,9461 1318,9470 1309,9487 1300,9505 1295,9531 1295,9567 1295,9602 1300,9628 1309,9646 1318,9664 1331,9672 1349,9672 1367,9672 1381,9664 1390,9646 1399,9628 1403,9602 1403,9567 1403,9531 1399,9505 1390,9487 1381,9470 1367,9461 1349,9461 L 1349,9461 Z M 1349,9433 C 1378,9433 1400,9445 1415,9467 1431,9490 1438,9523 1438,9567 1438,9610 1431,9643 1415,9666 1400,9689 1378,9700 1349,9700 1320,9700 1298,9689 1283,9666 1268,9643 1260,9610 1260,9567 1260,9523 1268,9490 1283,9467 1298,9445 1320,9433 1349,9433 L 1349,9433 Z"
   id="path113" />
        <path
   fill="rgb(0,0,0)"
   stroke="none"
   d="M 1499,9651 L 1536,9651 1536,9695 1499,9695 1499,9651 1499,9651 Z"
   id="path115" />
        <path
   fill="rgb(0,0,0)"
   stroke="none"
   d="M 1612,9438 L 1748,9438 1748,9467 1644,9467 1644,9530 C 1649,9528 1654,9527 1659,9526 1664,9525 1669,9525 1674,9525 1703,9525 1725,9533 1742,9549 1759,9564 1767,9586 1767,9612 1767,9640 1759,9662 1741,9677 1724,9692 1700,9700 1669,9700 1658,9700 1647,9699 1636,9697 1624,9695 1613,9693 1601,9689 L 1601,9654 C 1611,9660 1622,9664 1633,9666 1644,9669 1656,9671 1668,9671 1688,9671 1704,9665 1715,9655 1727,9645 1732,9630 1732,9612 1732,9595 1727,9580 1715,9570 1704,9559 1688,9554 1668,9554 1659,9554 1649,9555 1640,9557 1631,9559 1621,9563 1612,9567 L 1612,9438 1612,9438 Z"
   id="path117" />
        <path
   fill="none"
   stroke="rgb(0,0,0)"
   stroke-width="28"
   stroke-linejoin="round"
   d="M 2045,8467 L 1922,8467"
   id="path119" />
        <path
   fill="rgb(0,0,0)"
   stroke="none"
   d="M 1281,8572 L 1338,8572 1338,8375 1276,8388 1276,8356 1337,8344 1372,8344 1372,8572 1429,8572 1429,8601 1281,8601 1281,8572 1281,8572 Z"
   id="path121" />
        <path
   fill="rgb(0,0,0)"
   stroke="none"
   d="M 1499,8557 L 1536,8557 1536,8601 1499,8601 1499,8557 1499,8557 Z"
   id="path123" />
        <path
   fill="rgb(0,0,0)"
   stroke="none"
   d="M 1686,8367 C 1668,8367 1654,8375 1645,8393 1636,8411 1632,8437 1632,8473 1632,8508 1636,8534 1645,8552 1654,8570 1668,8578 1686,8578 1704,8578 1717,8570 1726,8552 1735,8534 1740,8508 1740,8473 1740,8437 1735,8411 1726,8393 1717,8375 1704,8367 1686,8367 L 1686,8367 Z M 1686,8339 C 1715,8339 1737,8351 1752,8373 1767,8396 1775,8429 1775,8473 1775,8516 1767,8549 1752,8572 1737,8595 1715,8606 1686,8606 1657,8606 1635,8595 1620,8572 1605,8549 1597,8516 1597,8473 1597,8429 1605,8396 1620,8373 1635,8351 1657,8339 1686,8339 L 1686,8339 Z"
   id="path125" />
        <path
   fill="none"
   stroke="rgb(0,0,0)"
   stroke-width="28"
   stroke-linejoin="round"
   d="M 2045,7373 L 1922,7373"
   id="path127" />
        <path
   fill="rgb(0,0,0)"
   stroke="none"
   d="M 1281,7478 L 1338,7478 1338,7281 1276,7294 1276,7262 1337,7250 1372,7250 1372,7478 1429,7478 1429,7507 1281,7507 1281,7478 1281,7478 Z"
   id="path129" />
        <path
   fill="rgb(0,0,0)"
   stroke="none"
   d="M 1499,7463 L 1536,7463 1536,7507 1499,7507 1499,7463 1499,7463 Z"
   id="path131" />
        <path
   fill="rgb(0,0,0)"
   stroke="none"
   d="M 1612,7250 L 1748,7250 1748,7279 1644,7279 1644,7342 C 1649,7340 1654,7339 1659,7338 1664,7337 1669,7337 1674,7337 1703,7337 1725,7345 1742,7361 1759,7376 1767,7398 1767,7424 1767,7452 1759,7474 1741,7489 1724,7504 1700,7512 1669,7512 1658,7512 1647,7511 1636,7509 1624,7507 1613,7505 1601,7501 L 1601,7466 C 1611,7472 1622,7476 1633,7478 1644,7481 1656,7483 1668,7483 1688,7483 1704,7477 1715,7467 1727,7456 1732,7442 1732,7424 1732,7406 1727,7392 1715,7382 1704,7371 1688,7366 1668,7366 1659,7366 1649,7367 1640,7369 1631,7371 1621,7375 1612,7379 L 1612,7250 1612,7250 Z"
   id="path133" />
        <path
   fill="none"
   stroke="rgb(0,0,0)"
   stroke-width="28"
   stroke-linejoin="round"
   d="M 2045,6279 L 1922,6279"
   id="path135" />
        <path
   fill="rgb(0,0,0)"
   stroke="none"
   d="M 1305,6384 L 1426,6384 1426,6413 1263,6413 1263,6384 C 1276,6370 1294,6352 1317,6329 1340,6306 1354,6291 1360,6284 1371,6272 1379,6261 1383,6252 1388,6244 1390,6235 1390,6227 1390,6213 1385,6202 1376,6193 1366,6185 1353,6180 1338,6180 1327,6180 1316,6182 1304,6186 1291,6190 1278,6196 1265,6203 L 1265,6168 C 1279,6162 1292,6158 1304,6155 1316,6153 1327,6151 1337,6151 1364,6151 1385,6158 1401,6171 1417,6184 1425,6202 1425,6224 1425,6235 1423,6245 1419,6255 1415,6264 1408,6275 1397,6288 1394,6291 1385,6301 1370,6317 1355,6333 1333,6355 1305,6384 L 1305,6384 Z"
   id="path137" />
        <path
   fill="rgb(0,0,0)"
   stroke="none"
   d="M 1499,6369 L 1536,6369 1536,6413 1499,6413 1499,6369 1499,6369 Z"
   id="path139" />
        <path
   fill="rgb(0,0,0)"
   stroke="none"
   d="M 1686,6179 C 1668,6179 1654,6187 1645,6205 1636,6223 1632,6249 1632,6285 1632,6320 1636,6346 1645,6364 1654,6382 1668,6390 1686,6390 1704,6390 1717,6382 1726,6364 1735,6346 1740,6320 1740,6285 1740,6249 1735,6223 1726,6205 1717,6187 1704,6179 1686,6179 L 1686,6179 Z M 1686,6151 C 1715,6151 1737,6162 1752,6185 1767,6208 1775,6241 1775,6285 1775,6328 1767,6361 1752,6384 1737,6406 1715,6418 1686,6418 1657,6418 1635,6406 1620,6384 1605,6361 1597,6328 1597,6285 1597,6241 1605,6208 1620,6185 1635,6162 1657,6151 1686,6151 L 1686,6151 Z"
   id="path141" />
        <path
   fill="none"
   stroke="rgb(0,0,0)"
   stroke-width="28"
   stroke-linejoin="round"
   d="M 2045,5185 L 1922,5185"
   id="path143" />
        <path
   fill="rgb(0,0,0)"
   stroke="none"
   d="M 1305,5290 L 1426,5290 1426,5319 1263,5319 1263,5290 C 1276,5276 1294,5258 1317,5235 1340,5212 1354,5197 1360,5190 1371,5177 1379,5167 1383,5158 1388,5150 1390,5141 1390,5133 1390,5119 1385,5108 1376,5099 1366,5091 1353,5086 1338,5086 1327,5086 1316,5088 1304,5092 1291,5096 1278,5102 1265,5109 L 1265,5074 C 1279,5068 1292,5064 1304,5061 1316,5058 1327,5057 1337,5057 1364,5057 1385,5064 1401,5077 1417,5090 1425,5108 1425,5130 1425,5141 1423,5151 1419,5160 1415,5170 1408,5181 1397,5194 1394,5197 1385,5207 1370,5223 1355,5239 1333,5261 1305,5290 L 1305,5290 Z"
   id="path145" />
        <path
   fill="rgb(0,0,0)"
   stroke="none"
   d="M 1499,5275 L 1536,5275 1536,5319 1499,5319 1499,5275 1499,5275 Z"
   id="path147" />
        <path
   fill="rgb(0,0,0)"
   stroke="none"
   d="M 1612,5062 L 1748,5062 1748,5091 1644,5091 1644,5154 C 1649,5152 1654,5151 1659,5150 1664,5149 1669,5149 1674,5149 1703,5149 1725,5157 1742,5172 1759,5188 1767,5209 1767,5236 1767,5264 1759,5286 1741,5301 1724,5316 1700,5324 1669,5324 1658,5324 1647,5323 1636,5321 1624,5319 1613,5317 1601,5313 L 1601,5278 C 1611,5283 1622,5288 1633,5290 1644,5293 1656,5295 1668,5295 1688,5295 1704,5289 1715,5279 1727,5268 1732,5254 1732,5236 1732,5218 1727,5204 1715,5194 1704,5183 1688,5178 1668,5178 1659,5178 1649,5179 1640,5181 1631,5183 1621,5186 1612,5191 L 1612,5062 1612,5062 Z"
   id="path149" />
        <path
   fill="none"
   stroke="rgb(0,0,0)"
   stroke-width="28"
   stroke-linejoin="round"
   d="M 2045,4091 L 1922,4091"
   id="path151" />
        <path
   fill="rgb(0,0,0)"
   stroke="none"
   d="M 1380,4086 C 1397,4090 1410,4097 1419,4108 1429,4120 1433,4134 1433,4150 1433,4175 1425,4195 1407,4209 1390,4223 1365,4230 1333,4230 1322,4230 1311,4229 1299,4227 1288,4225 1276,4221 1264,4217 L 1264,4183 C 1274,4189 1284,4193 1296,4196 1307,4199 1319,4201 1332,4201 1354,4201 1370,4196 1382,4188 1393,4179 1399,4167 1399,4150 1399,4135 1393,4123 1383,4115 1372,4106 1357,4102 1338,4102 L 1308,4102 1308,4073 1340,4073 C 1357,4073 1370,4070 1379,4063 1388,4056 1393,4046 1393,4033 1393,4020 1388,4010 1379,4003 1369,3996 1356,3992 1338,3992 1329,3992 1319,3993 1308,3995 1297,3997 1285,4001 1272,4005 L 1272,3974 C 1285,3970 1297,3968 1309,3966 1320,3964 1331,3963 1342,3963 1368,3963 1389,3969 1404,3981 1420,3993 1427,4009 1427,4030 1427,4044 1423,4056 1415,4066 1407,4076 1395,4082 1380,4086 L 1380,4086 Z"
   id="path153" />
        <path
   fill="rgb(0,0,0)"
   stroke="none"
   d="M 1499,4181 L 1536,4181 1536,4225 1499,4225 1499,4181 1499,4181 Z"
   id="path155" />
        <path
   fill="rgb(0,0,0)"
   stroke="none"
   d="M 1686,3991 C 1668,3991 1654,3999 1645,4017 1636,4035 1632,4061 1632,4097 1632,4132 1636,4158 1645,4176 1654,4193 1668,4202 1686,4202 1704,4202 1717,4193 1726,4176 1735,4158 1740,4132 1740,4097 1740,4061 1735,4035 1726,4017 1717,3999 1704,3991 1686,3991 L 1686,3991 Z M 1686,3963 C 1715,3963 1737,3974 1752,3997 1767,4020 1775,4053 1775,4097 1775,4140 1767,4173 1752,4196 1737,4218 1715,4230 1686,4230 1657,4230 1635,4218 1620,4196 1605,4173 1597,4140 1597,4097 1597,4053 1605,4020 1620,3997 1635,3974 1657,3963 1686,3963 L 1686,3963 Z"
   id="path157" />
        <path
   fill="none"
   stroke="rgb(0,0,0)"
   stroke-width="28"
   stroke-linejoin="round"
   d="M 2045,2997 L 1922,2997"
   id="path159" />
        <path
   fill="rgb(0,0,0)"
   stroke="none"
   d="M 1380,2992 C 1397,2996 1410,3003 1419,3014 1429,3026 1433,3040 1433,3056 1433,3081 1425,3101 1407,3115 1390,3129 1365,3136 1333,3136 1322,3136 1311,3135 1299,3133 1288,3130 1276,3127 1264,3123 L 1264,3089 C 1274,3095 1284,3099 1296,3102 1307,3105 1319,3106 1332,3106 1354,3106 1370,3102 1382,3094 1393,3085 1399,3072 1399,3056 1399,3041 1393,3029 1383,3021 1372,3012 1357,3008 1338,3008 L 1308,3008 1308,2979 1340,2979 C 1357,2979 1370,2976 1379,2969 1388,2962 1393,2952 1393,2939 1393,2926 1388,2916 1379,2909 1369,2902 1356,2898 1338,2898 1329,2898 1319,2899 1308,2901 1297,2903 1285,2907 1272,2911 L 1272,2880 C 1285,2876 1297,2874 1309,2872 1320,2870 1331,2869 1342,2869 1368,2869 1389,2875 1404,2887 1420,2899 1427,2915 1427,2936 1427,2950 1423,2962 1415,2972 1407,2982 1395,2988 1380,2992 L 1380,2992 Z"
   id="path161" />
        <path
   fill="rgb(0,0,0)"
   stroke="none"
   d="M 1499,3087 L 1536,3087 1536,3131 1499,3131 1499,3087 1499,3087 Z"
   id="path163" />
        <path
   fill="rgb(0,0,0)"
   stroke="none"
   d="M 1612,2874 L 1748,2874 1748,2903 1644,2903 1644,2966 C 1649,2964 1654,2963 1659,2962 1664,2961 1669,2961 1674,2961 1703,2961 1725,2969 1742,2984 1759,3000 1767,3021 1767,3048 1767,3076 1759,3097 1741,3113 1724,3128 1700,3136 1669,3136 1658,3136 1647,3135 1636,3133 1624,3131 1613,3128 1601,3125 L 1601,3090 C 1611,3095 1622,3100 1633,3102 1644,3105 1656,3106 1668,3106 1688,3106 1704,3101 1715,3091 1727,3080 1732,3066 1732,3048 1732,3030 1727,3016 1715,3006 1704,2995 1688,2990 1668,2990 1659,2990 1649,2991 1640,2993 1631,2995 1621,2998 1612,3003 L 1612,2874 1612,2874 Z"
   id="path165" />
        <path
   fill="none"
   stroke="rgb(0,0,0)"
   stroke-width="28"
   stroke-linejoin="round"
   d="M 2045,1903 L 1922,1903"
   id="path167" />
        <path
   fill="rgb(0,0,0)"
   stroke="none"
   d="M 1370,1810 L 1283,1947 1370,1947 1370,1810 1370,1810 Z M 1361,1780 L 1405,1780 1405,1947 1442,1947 1442,1976 1405,1976 1405,2037 1370,2037 1370,1976 1254,1976 1254,1943 1361,1780 1361,1780 Z"
   id="path169" />
        <path
   fill="rgb(0,0,0)"
   stroke="none"
   d="M 1499,1993 L 1536,1993 1536,2037 1499,2037 1499,1993 1499,1993 Z"
   id="path171" />
        <path
   fill="rgb(0,0,0)"
   stroke="none"
   d="M 1686,1803 C 1668,1803 1654,1811 1645,1829 1636,1847 1632,1873 1632,1908 1632,1944 1636,1970 1645,1988 1654,2005 1668,2014 1686,2014 1704,2014 1717,2005 1726,1988 1735,1970 1740,1944 1740,1908 1740,1873 1735,1847 1726,1829 1717,1811 1704,1803 1686,1803 L 1686,1803 Z M 1686,1775 C 1715,1775 1737,1786 1752,1809 1767,1832 1775,1865 1775,1908 1775,1952 1767,1985 1752,2008 1737,2030 1715,2042 1686,2042 1657,2042 1635,2030 1620,2008 1605,1985 1597,1952 1597,1908 1597,1865 1605,1832 1620,1809 1635,1786 1657,1775 1686,1775 L 1686,1775 Z"
   id="path173" />
        <path
   fill="none"
   stroke="rgb(255,255,255)"
   stroke-width="53"
   stroke-linejoin="round"
   stroke-linecap="square"
   d="M 9754,1903 L 3157,1903 3406,1903 3074,1903 2618,1903 2784,1903"
   id="path175" />
        <path
   fill="rgb(255,255,255)"
   stroke="none"
   d="M 9649,2009 L 9860,2009 9860,1797 9649,1797 9649,2009 Z"
   id="path177" />
        <path
   fill="none"
   stroke="rgb(0,0,0)"
   stroke-width="35"
   stroke-linejoin="miter"
   d="M 9649,2009 L 9860,2009 9860,1797 9649,1797 9649,2009 Z"
   id="path179" />
        <path
   fill="rgb(255,255,255)"
   stroke="none"
   d="M 3051,2009 L 3263,2009 3263,1797 3051,1797 3051,2009 Z"
   id="path181" />
        <path
   fill="none"
   stroke="rgb(0,0,0)"
   stroke-width="35"
   stroke-linejoin="miter"
   d="M 3051,2009 L 3263,2009 3263,1797 3051,1797 3051,2009 Z"
   id="path183" />
        <path
   fill="rgb(255,255,255)"
   stroke="none"
   d="M 3300,2009 L 3512,2009 3512,1797 3300,1797 3300,2009 Z"
   id="path185" />
        <path
   fill="none"
   stroke="rgb(0,0,0)"
   stroke-width="35"
   stroke-linejoin="miter"
   d="M 3300,2009 L 3512,2009 3512,1797 3300,1797 3300,2009 Z"
   id="path187" />
        <path
   fill="rgb(255,255,255)"
   stroke="none"
   d="M 2968,2009 L 3180,2009 3180,1797 2968,1797 2968,2009 Z"
   id="path189" />
        <path
   fill="none"
   stroke="rgb(0,0,0)"
   stroke-width="35"
   stroke-linejoin="miter"
   d="M 2968,2009 L 3180,2009 3180,1797 2968,1797 2968,2009 Z"
   id="path191" />
        <path
   fill="rgb(255,255,255)"
   stroke="none"
   d="M 2512,2009 L 2723,2009 2723,1797 2512,1797 2512,2009 Z"
   id="path193" />
        <path
   fill="none"
   stroke="rgb(0,0,0)"
   stroke-width="35"
   stroke-linejoin="miter"
   d="M 2512,2009 L 2723,2009 2723,1797 2512,1797 2512,2009 Z"
   id="path195" />
        <path
   fill="rgb(255,255,255)"
   stroke="none"
   d="M 2678,2009 L 2889,2009 2889,1797 2678,1797 2678,2009 Z"
   id="path197" />
        <path
   fill="none"
   stroke="rgb(0,0,0)"
   stroke-width="35"
   stroke-linejoin="miter"
   d="M 2678,2009 L 2889,2009 2889,1797 2678,1797 2678,2009 Z"
   id="path199" />
        <path
   fill="none"
   stroke="rgb(255,255,255)"
   stroke-width="53"
   stroke-linejoin="round"
   stroke-linecap="square"
   d="M 8634,1903 L 8468,1903 8344,1903 8219,1903"
   id="path201" />
        <path
   fill="rgb(255,255,255)"
   stroke="none"
   d="M 8634,2009 C 8662,2009 8689,1997 8709,1978 8729,1958 8740,1931 8740,1903 8740,1875 8729,1848 8709,1828 8689,1808 8662,1797 8634,1797 8606,1797 8579,1808 8559,1828 8539,1848 8528,1875 8528,1903 8528,1931 8539,1958 8559,1978 8579,1997 8606,2009 8634,2009 L 8634,2009 Z"
   id="path203" />
        <path
   fill="none"
   stroke="rgb(0,0,0)"
   stroke-width="35"
   stroke-linejoin="round"
   d="M 8634,2009 C 8662,2009 8689,1997 8709,1978 8729,1958 8740,1931 8740,1903 8740,1875 8729,1848 8709,1828 8689,1808 8662,1797 8634,1797 8606,1797 8579,1808 8559,1828 8539,1848 8528,1875 8528,1903 8528,1931 8539,1958 8559,1978 8579,1997 8606,2009 8634,2009 Z"
   id="path205" />
        <path
   fill="rgb(255,255,255)"
   stroke="none"
   d="M 8468,2009 C 8496,2009 8523,1997 8543,1978 8563,1958 8574,1931 8574,1903 8574,1875 8563,1848 8543,1828 8523,1808 8496,1797 8468,1797 8440,1797 8413,1808 8393,1828 8373,1848 8362,1875 8362,1903 8362,1931 8373,1958 8393,1978 8413,1997 8440,2009 8468,2009 L 8468,2009 Z"
   id="path207" />
        <path
   fill="none"
   stroke="rgb(0,0,0)"
   stroke-width="35"
   stroke-linejoin="round"
   d="M 8468,2009 C 8496,2009 8523,1997 8543,1978 8563,1958 8574,1931 8574,1903 8574,1875 8563,1848 8543,1828 8523,1808 8496,1797 8468,1797 8440,1797 8413,1808 8393,1828 8373,1848 8362,1875 8362,1903 8362,1931 8373,1958 8393,1978 8413,1997 8440,2009 8468,2009 Z"
   id="path209" />
        <path
   fill="rgb(255,255,255)"
   stroke="none"
   d="M 8344,2009 C 8372,2009 8399,1997 8419,1978 8438,1958 8450,1931 8450,1903 8450,1875 8438,1848 8419,1828 8399,1808 8372,1797 8344,1797 8316,1797 8289,1808 8269,1828 8249,1848 8238,1875 8238,1903 8238,1931 8249,1958 8269,1978 8289,1997 8316,2009 8344,2009 L 8344,2009 Z"
   id="path211" />
        <path
   fill="none"
   stroke="rgb(0,0,0)"
   stroke-width="35"
   stroke-linejoin="round"
   d="M 8344,2009 C 8372,2009 8399,1997 8419,1978 8438,1958 8450,1931 8450,1903 8450,1875 8438,1848 8419,1828 8399,1808 8372,1797 8344,1797 8316,1797 8289,1808 8269,1828 8249,1848 8238,1875 8238,1903 8238,1931 8249,1958 8269,1978 8289,1997 8316,2009 8344,2009 Z"
   id="path213" />
        <path
   fill="rgb(255,255,255)"
   stroke="none"
   d="M 8219,2009 C 8247,2009 8274,1997 8294,1978 8314,1958 8325,1931 8325,1903 8325,1875 8314,1848 8294,1828 8274,1808 8247,1797 8219,1797 8191,1797 8164,1808 8144,1828 8125,1848 8113,1875 8113,1903 8113,1931 8125,1958 8144,1978 8164,1997 8191,2009 8219,2009 L 8219,2009 Z"
   id="path215" />
        <path
   fill="none"
   stroke="rgb(0,0,0)"
   stroke-width="35"
   stroke-linejoin="round"
   d="M 8219,2009 C 8247,2009 8274,1997 8294,1978 8314,1958 8325,1931 8325,1903 8325,1875 8314,1848 8294,1828 8274,1808 8247,1797 8219,1797 8191,1797 8164,1808 8144,1828 8125,1848 8113,1875 8113,1903 8113,1931 8125,1958 8144,1978 8164,1997 8191,2009 8219,2009 Z"
   id="path217" />
        <path
   fill="none"
   stroke="rgb(255,255,255)"
   stroke-width="53"
   stroke-linejoin="round"
   stroke-linecap="square"
   d="M 4900,1903 L 4734,1903 4609,1903"
   id="path219" />
        <path
   fill="rgb(255,255,255)"
   stroke="none"
   d="M 4900,2009 C 4928,2009 4955,1997 4975,1978 4994,1958 5006,1931 5006,1903 5006,1875 4994,1848 4975,1828 4955,1808 4928,1797 4900,1797 4872,1797 4845,1808 4825,1828 4805,1848 4794,1875 4794,1903 4794,1931 4805,1958 4825,1978 4845,1997 4872,2009 4900,2009 L 4900,2009 Z"
   id="path221" />
        <path
   fill="none"
   stroke="rgb(0,0,0)"
   stroke-width="35"
   stroke-linejoin="round"
   d="M 4900,2009 C 4928,2009 4955,1997 4975,1978 4994,1958 5006,1931 5006,1903 5006,1875 4994,1848 4975,1828 4955,1808 4928,1797 4900,1797 4872,1797 4845,1808 4825,1828 4805,1848 4794,1875 4794,1903 4794,1931 4805,1958 4825,1978 4845,1997 4872,2009 4900,2009 Z"
   id="path223" />
        <path
   fill="rgb(255,255,255)"
   stroke="none"
   d="M 4734,2009 C 4762,2009 4789,1997 4809,1978 4828,1958 4840,1931 4840,1903 4840,1875 4828,1848 4809,1828 4789,1808 4762,1797 4734,1797 4706,1797 4679,1808 4659,1828 4639,1848 4628,1875 4628,1903 4628,1931 4639,1958 4659,1978 4679,1997 4706,2009 4734,2009 L 4734,2009 Z"
   id="path225" />
        <path
   fill="none"
   stroke="rgb(0,0,0)"
   stroke-width="35"
   stroke-linejoin="round"
   d="M 4734,2009 C 4762,2009 4789,1997 4809,1978 4828,1958 4840,1931 4840,1903 4840,1875 4828,1848 4809,1828 4789,1808 4762,1797 4734,1797 4706,1797 4679,1808 4659,1828 4639,1848 4628,1875 4628,1903 4628,1931 4639,1958 4659,1978 4679,1997 4706,2009 4734,2009 Z"
   id="path227" />
        <path
   fill="rgb(255,255,255)"
   stroke="none"
   d="M 4609,2009 C 4637,2009 4664,1997 4684,1978 4704,1958 4715,1931 4715,1903 4715,1875 4704,1848 4684,1828 4664,1808 4637,1797 4609,1797 4581,1797 4554,1808 4534,1828 4515,1848 4503,1875 4503,1903 4503,1931 4515,1958 4534,1978 4554,1997 4581,2009 4609,2009 L 4609,2009 Z"
   id="path229" />
        <path
   fill="none"
   stroke="rgb(0,0,0)"
   stroke-width="35"
   stroke-linejoin="round"
   d="M 4609,2009 C 4637,2009 4664,1997 4684,1978 4704,1958 4715,1931 4715,1903 4715,1875 4704,1848 4684,1828 4664,1808 4637,1797 4609,1797 4581,1797 4554,1808 4534,1828 4515,1848 4503,1875 4503,1903 4503,1931 4515,1958 4534,1978 4554,1997 4581,2009 4609,2009 Z"
   id="path231" />
        <path
   fill="none"
   stroke="rgb(255,255,255)"
   stroke-width="53"
   stroke-linejoin="round"
   stroke-linecap="square"
   d="M 9464,10436 L 10875,10436"
   id="path233" />
        <path
   fill="none"
   stroke="rgb(0,0,0)"
   stroke-width="35"
   stroke-linejoin="round"
   d="M 9358,10542 L 9570,10330"
   id="path235" />
        <path
   fill="none"
   stroke="rgb(0,0,0)"
   stroke-width="35"
   stroke-linejoin="round"
   d="M 9358,10330 L 9570,10542"
   id="path237" />
        <path
   fill="none"
   stroke="rgb(0,0,0)"
   stroke-width="35"
   stroke-linejoin="round"
   d="M 10769,10542 L 10981,10330"
   id="path239" />
        <path
   fill="none"
   stroke="rgb(0,0,0)"
   stroke-width="35"
   stroke-linejoin="round"
   d="M 10769,10330 L 10981,10542"
   id="path241" />
        <path
   fill="none"
   stroke="rgb(255,255,255)"
   stroke-width="53"
   stroke-linejoin="round"
   stroke-linecap="square"
   d="M 12410,10436 L 10875,10436 12410,10436 Z"
   id="path243" />
        <path
   fill="rgb(255,255,255)"
   stroke="none"
   d="M 12410,10542 C 12438,10542 12465,10531 12485,10511 12505,10491 12516,10464 12516,10436 12516,10408 12505,10381 12485,10361 12465,10341 12438,10330 12410,10330 12382,10330 12355,10341 12335,10361 12315,10381 12304,10408 12304,10436 12304,10464 12315,10491 12335,10511 12355,10531 12382,10542 12410,10542 L 12410,10542 Z"
   id="path245" />
        <path
   fill="none"
   stroke="rgb(0,0,0)"
   stroke-width="35"
   stroke-linejoin="round"
   d="M 12410,10542 C 12438,10542 12465,10531 12485,10511 12505,10491 12516,10464 12516,10436 12516,10408 12505,10381 12485,10361 12465,10341 12438,10330 12410,10330 12382,10330 12355,10341 12335,10361 12315,10381 12304,10408 12304,10436 12304,10464 12315,10491 12335,10511 12355,10531 12382,10542 12410,10542 Z"
   id="path247" />
        <path
   fill="rgb(255,255,255)"
   stroke="none"
   d="M 10875,10542 C 10903,10542 10930,10531 10950,10511 10969,10491 10981,10464 10981,10436 10981,10408 10969,10381 10950,10361 10930,10341 10903,10330 10875,10330 10847,10330 10820,10341 10800,10361 10780,10381 10769,10408 10769,10436 10769,10464 10780,10491 10800,10511 10820,10531 10847,10542 10875,10542 L 10875,10542 Z"
   id="path249" />
        <path
   fill="none"
   stroke="rgb(0,0,0)"
   stroke-width="35"
   stroke-linejoin="round"
   d="M 10875,10542 C 10903,10542 10930,10531 10950,10511 10969,10491 10981,10464 10981,10436 10981,10408 10969,10381 10950,10361 10930,10341 10903,10330 10875,10330 10847,10330 10820,10341 10800,10361 10780,10381 10769,10408 10769,10436 10769,10464 10780,10491 10800,10511 10820,10531 10847,10542 10875,10542 Z"
   id="path251" />
        <path
   fill="rgb(255,255,255)"
   stroke="none"
   d="M 12410,10542 C 12438,10542 12465,10531 12485,10511 12505,10491 12516,10464 12516,10436 12516,10408 12505,10381 12485,10361 12465,10341 12438,10330 12410,10330 12382,10330 12355,10341 12335,10361 12315,10381 12304,10408 12304,10436 12304,10464 12315,10491 12335,10511 12355,10531 12382,10542 12410,10542 L 12410,10542 Z"
   id="path253" />
        <path
   fill="none"
   stroke="rgb(0,0,0)"
   stroke-width="35"
   stroke-linejoin="round"
   d="M 12410,10542 C 12438,10542 12465,10531 12485,10511 12505,10491 12516,10464 12516,10436 12516,10408 12505,10381 12485,10361 12465,10341 12438,10330 12410,10330 12382,10330 12355,10341 12335,10361 12315,10381 12304,10408 12304,10436 12304,10464 12315,10491 12335,10511 12355,10531 12382,10542 12410,10542 Z"
   id="path255" />
        <path
   fill="none"
   stroke="rgb(255,255,255)"
   stroke-width="53"
   stroke-linejoin="round"
   stroke-linecap="square"
   d="M 12410,8467 L 9464,8467 9464,8467 10875,8467 10875,8467 10045,8467 11165,8467 11165,8467 11165,8467 14070,8467 11165,8467 6559,8467"
   id="path257" />
        <path
   fill="none"
   stroke="rgb(0,0,0)"
   stroke-width="35"
   stroke-linejoin="round"
   d="M 12304,8573 L 12516,8361"
   id="path259" />
        <path
   fill="none"
   stroke="rgb(0,0,0)"
   stroke-width="35"
   stroke-linejoin="round"
   d="M 12304,8361 L 12516,8573"
   id="path261" />
        <path
   fill="none"
   stroke="rgb(0,0,0)"
   stroke-width="35"
   stroke-linejoin="round"
   d="M 9358,8573 L 9570,8361"
   id="path263" />
        <path
   fill="none"
   stroke="rgb(0,0,0)"
   stroke-width="35"
   stroke-linejoin="round"
   d="M 9358,8361 L 9570,8573"
   id="path265" />
        <path
   fill="none"
   stroke="rgb(0,0,0)"
   stroke-width="35"
   stroke-linejoin="round"
   d="M 9358,8573 L 9570,8361"
   id="path267" />
        <path
   fill="none"
   stroke="rgb(0,0,0)"
   stroke-width="35"
   stroke-linejoin="round"
   d="M 9358,8361 L 9570,8573"
   id="path269" />
        <path
   fill="none"
   stroke="rgb(0,0,0)"
   stroke-width="35"
   stroke-linejoin="round"
   d="M 10769,8573 L 10981,8361"
   id="path271" />
        <path
   fill="none"
   stroke="rgb(0,0,0)"
   stroke-width="35"
   stroke-linejoin="round"
   d="M 10769,8361 L 10981,8573"
   id="path273" />
        <path
   fill="none"
   stroke="rgb(0,0,0)"
   stroke-width="35"
   stroke-linejoin="round"
   d="M 10769,8573 L 10981,8361"
   id="path275" />
        <path
   fill="none"
   stroke="rgb(0,0,0)"
   stroke-width="35"
   stroke-linejoin="round"
   d="M 10769,8361 L 10981,8573"
   id="path277" />
        <path
   fill="none"
   stroke="rgb(0,0,0)"
   stroke-width="35"
   stroke-linejoin="round"
   d="M 9939,8573 L 10151,8361"
   id="path279" />
        <path
   fill="none"
   stroke="rgb(0,0,0)"
   stroke-width="35"
   stroke-linejoin="round"
   d="M 9939,8361 L 10151,8573"
   id="path281" />
        <path
   fill="none"
   stroke="rgb(0,0,0)"
   stroke-width="35"
   stroke-linejoin="round"
   d="M 11059,8573 L 11271,8361"
   id="path283" />
        <path
   fill="none"
   stroke="rgb(0,0,0)"
   stroke-width="35"
   stroke-linejoin="round"
   d="M 11059,8361 L 11271,8573"
   id="path285" />
        <path
   fill="none"
   stroke="rgb(0,0,0)"
   stroke-width="35"
   stroke-linejoin="round"
   d="M 11059,8573 L 11271,8361"
   id="path287" />
        <path
   fill="none"
   stroke="rgb(0,0,0)"
   stroke-width="35"
   stroke-linejoin="round"
   d="M 11059,8361 L 11271,8573"
   id="path289" />
        <path
   fill="none"
   stroke="rgb(0,0,0)"
   stroke-width="35"
   stroke-linejoin="round"
   d="M 11059,8573 L 11271,8361"
   id="path291" />
        <path
   fill="none"
   stroke="rgb(0,0,0)"
   stroke-width="35"
   stroke-linejoin="round"
   d="M 11059,8361 L 11271,8573"
   id="path293" />
        <path
   fill="none"
   stroke="rgb(0,0,0)"
   stroke-width="35"
   stroke-linejoin="round"
   d="M 13964,8573 L 14176,8361"
   id="path295" />
        <path
   fill="none"
   stroke="rgb(0,0,0)"
   stroke-width="35"
   stroke-linejoin="round"
   d="M 13964,8361 L 14176,8573"
   id="path297" />
        <path
   fill="none"
   stroke="rgb(0,0,0)"
   stroke-width="35"
   stroke-linejoin="round"
   d="M 11059,8573 L 11271,8361"
   id="path299" />
        <path
   fill="none"
   stroke="rgb(0,0,0)"
   stroke-width="35"
   stroke-linejoin="round"
   d="M 11059,8361 L 11271,8573"
   id="path301" />
        <path
   fill="none"
   stroke="rgb(0,0,0)"
   stroke-width="35"
   stroke-linejoin="round"
   d="M 6454,8573 L 6665,8361"
   id="path303" />
        <path
   fill="none"
   stroke="rgb(0,0,0)"
   stroke-width="35"
   stroke-linejoin="round"
   d="M 6454,8361 L 6665,8573"
   id="path305" />
        <path
   fill="none"
   stroke="rgb(255,255,255)"
   stroke-width="53"
   stroke-linejoin="round"
   stroke-linecap="square"
   d="M 8883,8467 L 8219,8467 8510,8467 10584,8467 14070,8467 14070,8467 14070,8467 14070,8467"
   id="path307" />
        <path
   fill="rgb(255,255,255)"
   stroke="none"
   d="M 8883,8573 C 8911,8573 8938,8562 8958,8542 8978,8522 8989,8495 8989,8467 8989,8439 8978,8412 8958,8392 8938,8372 8911,8361 8883,8361 8855,8361 8828,8372 8808,8392 8788,8412 8777,8439 8777,8467 8777,8495 8788,8522 8808,8542 8828,8562 8855,8573 8883,8573 L 8883,8573 Z"
   id="path309" />
        <path
   fill="none"
   stroke="rgb(0,0,0)"
   stroke-width="35"
   stroke-linejoin="round"
   d="M 8883,8573 C 8911,8573 8938,8562 8958,8542 8978,8522 8989,8495 8989,8467 8989,8439 8978,8412 8958,8392 8938,8372 8911,8361 8883,8361 8855,8361 8828,8372 8808,8392 8788,8412 8777,8439 8777,8467 8777,8495 8788,8522 8808,8542 8828,8562 8855,8573 8883,8573 Z"
   id="path311" />
        <path
   fill="rgb(255,255,255)"
   stroke="none"
   d="M 8219,8573 C 8247,8573 8274,8562 8294,8542 8314,8522 8325,8495 8325,8467 8325,8439 8314,8412 8294,8392 8274,8372 8247,8361 8219,8361 8191,8361 8164,8372 8144,8392 8125,8412 8113,8439 8113,8467 8113,8495 8125,8522 8144,8542 8164,8562 8191,8573 8219,8573 L 8219,8573 Z"
   id="path313" />
        <path
   fill="none"
   stroke="rgb(0,0,0)"
   stroke-width="35"
   stroke-linejoin="round"
   d="M 8219,8573 C 8247,8573 8274,8562 8294,8542 8314,8522 8325,8495 8325,8467 8325,8439 8314,8412 8294,8392 8274,8372 8247,8361 8219,8361 8191,8361 8164,8372 8144,8392 8125,8412 8113,8439 8113,8467 8113,8495 8125,8522 8144,8542 8164,8562 8191,8573 8219,8573 Z"
   id="path315" />
        <path
   fill="rgb(255,255,255)"
   stroke="none"
   d="M 8510,8573 C 8538,8573 8565,8562 8584,8542 8604,8522 8615,8495 8615,8467 8615,8439 8604,8412 8584,8392 8565,8372 8538,8361 8510,8361 8482,8361 8455,8372 8435,8392 8415,8412 8404,8439 8404,8467 8404,8495 8415,8522 8435,8542 8455,8562 8482,8573 8510,8573 L 8510,8573 Z"
   id="path317" />
        <path
   fill="none"
   stroke="rgb(0,0,0)"
   stroke-width="35"
   stroke-linejoin="round"
   d="M 8510,8573 C 8538,8573 8565,8562 8584,8542 8604,8522 8615,8495 8615,8467 8615,8439 8604,8412 8584,8392 8565,8372 8538,8361 8510,8361 8482,8361 8455,8372 8435,8392 8415,8412 8404,8439 8404,8467 8404,8495 8415,8522 8435,8542 8455,8562 8482,8573 8510,8573 Z"
   id="path319" />
        <path
   fill="rgb(255,255,255)"
   stroke="none"
   d="M 10584,8573 C 10612,8573 10639,8562 10659,8542 10679,8522 10690,8495 10690,8467 10690,8439 10679,8412 10659,8392 10639,8372 10612,8361 10584,8361 10556,8361 10529,8372 10509,8392 10490,8412 10478,8439 10478,8467 10478,8495 10490,8522 10509,8542 10529,8562 10556,8573 10584,8573 L 10584,8573 Z"
   id="path321" />
        <path
   fill="none"
   stroke="rgb(0,0,0)"
   stroke-width="35"
   stroke-linejoin="round"
   d="M 10584,8573 C 10612,8573 10639,8562 10659,8542 10679,8522 10690,8495 10690,8467 10690,8439 10679,8412 10659,8392 10639,8372 10612,8361 10584,8361 10556,8361 10529,8372 10509,8392 10490,8412 10478,8439 10478,8467 10478,8495 10490,8522 10509,8542 10529,8562 10556,8573 10584,8573 Z"
   id="path323" />
        <path
   fill="rgb(255,255,255)"
   stroke="none"
   d="M 14070,8573 C 14098,8573 14125,8562 14145,8542 14164,8522 14176,8495 14176,8467 14176,8439 14164,8412 14145,8392 14125,8372 14098,8361 14070,8361 14042,8361 14015,8372 13995,8392 13975,8412 13964,8439 13964,8467 13964,8495 13975,8522 13995,8542 14015,8562 14042,8573 14070,8573 L 14070,8573 Z"
   id="path325" />
        <path
   fill="none"
   stroke="rgb(0,0,0)"
   stroke-width="35"
   stroke-linejoin="round"
   d="M 14070,8573 C 14098,8573 14125,8562 14145,8542 14164,8522 14176,8495 14176,8467 14176,8439 14164,8412 14145,8392 14125,8372 14098,8361 14070,8361 14042,8361 14015,8372 13995,8392 13975,8412 13964,8439 13964,8467 13964,8495 13975,8522 13995,8542 14015,8562 14042,8573 14070,8573 Z"
   id="path327" />
        <path
   fill="rgb(255,255,255)"
   stroke="none"
   d="M 14070,8573 C 14098,8573 14125,8562 14145,8542 14164,8522 14176,8495 14176,8467 14176,8439 14164,8412 14145,8392 14125,8372 14098,8361 14070,8361 14042,8361 14015,8372 13995,8392 13975,8412 13964,8439 13964,8467 13964,8495 13975,8522 13995,8542 14015,8562 14042,8573 14070,8573 L 14070,8573 Z"
   id="path329" />
        <path
   fill="none"
   stroke="rgb(0,0,0)"
   stroke-width="35"
   stroke-linejoin="round"
   d="M 14070,8573 C 14098,8573 14125,8562 14145,8542 14164,8522 14176,8495 14176,8467 14176,8439 14164,8412 14145,8392 14125,8372 14098,8361 14070,8361 14042,8361 14015,8372 13995,8392 13975,8412 13964,8439 13964,8467 13964,8495 13975,8522 13995,8542 14015,8562 14042,8573 14070,8573 Z"
   id="path331" />
        <path
   fill="rgb(255,255,255)"
   stroke="none"
   d="M 14070,8573 C 14098,8573 14125,8562 14145,8542 14164,8522 14176,8495 14176,8467 14176,8439 14164,8412 14145,8392 14125,8372 14098,8361 14070,8361 14042,8361 14015,8372 13995,8392 13975,8412 13964,8439 13964,8467 13964,8495 13975,8522 13995,8542 14015,8562 14042,8573 14070,8573 L 14070,8573 Z"
   id="path333" />
        <path
   fill="none"
   stroke="rgb(0,0,0)"
   stroke-width="35"
   stroke-linejoin="round"
   d="M 14070,8573 C 14098,8573 14125,8562 14145,8542 14164,8522 14176,8495 14176,8467 14176,8439 14164,8412 14145,8392 14125,8372 14098,8361 14070,8361 14042,8361 14015,8372 13995,8392 13975,8412 13964,8439 13964,8467 13964,8495 13975,8522 13995,8542 14015,8562 14042,8573 14070,8573 Z"
   id="path335" />
        <path
   fill="rgb(255,255,255)"
   stroke="none"
   d="M 14070,8573 C 14098,8573 14125,8562 14145,8542 14164,8522 14176,8495 14176,8467 14176,8439 14164,8412 14145,8392 14125,8372 14098,8361 14070,8361 14042,8361 14015,8372 13995,8392 13975,8412 13964,8439 13964,8467 13964,8495 13975,8522 13995,8542 14015,8562 14042,8573 14070,8573 L 14070,8573 Z"
   id="path337" />
        <path
   fill="none"
   stroke="rgb(0,0,0)"
   stroke-width="35"
   stroke-linejoin="round"
   d="M 14070,8573 C 14098,8573 14125,8562 14145,8542 14164,8522 14176,8495 14176,8467 14176,8439 14164,8412 14145,8392 14125,8372 14098,8361 14070,8361 14042,8361 14015,8372 13995,8392 13975,8412 13964,8439 13964,8467 13964,8495 13975,8522 13995,8542 14015,8562 14042,8573 14070,8573 Z"
   id="path339" />
        <path
   fill="none"
   stroke="rgb(255,255,255)"
   stroke-width="53"
   stroke-linejoin="round"
   stroke-linecap="square"
   d="M 12410,8467 L 7638,8467 10875,8467 7638,8467 8551,8467 9174,8467 9174,8467 7431,8467 7514,8467 7929,8467 10294,8467 11165,8467 11165,8467 6559,8467 6352,8467 6435,8467 6684,8467 6767,8467 6891,8467 11165,8467 11165,8467 11165,8467"
   id="path341" />
        <path
   fill="rgb(255,255,255)"
   stroke="none"
   d="M 12304,8573 L 12516,8573 12516,8361 12304,8361 12304,8573 Z"
   id="path343" />
        <path
   fill="none"
   stroke="rgb(0,0,0)"
   stroke-width="35"
   stroke-linejoin="miter"
   d="M 12304,8573 L 12516,8573 12516,8361 12304,8361 12304,8573 Z"
   id="path345" />
        <path
   fill="rgb(255,255,255)"
   stroke="none"
   d="M 7532,8573 L 7744,8573 7744,8361 7532,8361 7532,8573 Z"
   id="path347" />
        <path
   fill="none"
   stroke="rgb(0,0,0)"
   stroke-width="35"
   stroke-linejoin="miter"
   d="M 7532,8573 L 7744,8573 7744,8361 7532,8361 7532,8573 Z"
   id="path349" />
        <path
   fill="rgb(255,255,255)"
   stroke="none"
   d="M 10769,8573 L 10981,8573 10981,8361 10769,8361 10769,8573 Z"
   id="path351" />
        <path
   fill="none"
   stroke="rgb(0,0,0)"
   stroke-width="35"
   stroke-linejoin="miter"
   d="M 10769,8573 L 10981,8573 10981,8361 10769,8361 10769,8573 Z"
   id="path353" />
        <path
   fill="rgb(255,255,255)"
   stroke="none"
   d="M 7532,8573 L 7744,8573 7744,8361 7532,8361 7532,8573 Z"
   id="path355" />
        <path
   fill="none"
   stroke="rgb(0,0,0)"
   stroke-width="35"
   stroke-linejoin="miter"
   d="M 7532,8573 L 7744,8573 7744,8361 7532,8361 7532,8573 Z"
   id="path357" />
        <path
   fill="rgb(255,255,255)"
   stroke="none"
   d="M 8445,8573 L 8657,8573 8657,8361 8445,8361 8445,8573 Z"
   id="path359" />
        <path
   fill="none"
   stroke="rgb(0,0,0)"
   stroke-width="35"
   stroke-linejoin="miter"
   d="M 8445,8573 L 8657,8573 8657,8361 8445,8361 8445,8573 Z"
   id="path361" />
        <path
   fill="rgb(255,255,255)"
   stroke="none"
   d="M 9068,8573 L 9279,8573 9279,8361 9068,8361 9068,8573 Z"
   id="path363" />
        <path
   fill="none"
   stroke="rgb(0,0,0)"
   stroke-width="35"
   stroke-linejoin="miter"
   d="M 9068,8573 L 9279,8573 9279,8361 9068,8361 9068,8573 Z"
   id="path365" />
        <path
   fill="rgb(255,255,255)"
   stroke="none"
   d="M 9068,8573 L 9279,8573 9279,8361 9068,8361 9068,8573 Z"
   id="path367" />
        <path
   fill="none"
   stroke="rgb(0,0,0)"
   stroke-width="35"
   stroke-linejoin="miter"
   d="M 9068,8573 L 9279,8573 9279,8361 9068,8361 9068,8573 Z"
   id="path369" />
        <path
   fill="rgb(255,255,255)"
   stroke="none"
   d="M 7325,8573 L 7537,8573 7537,8361 7325,8361 7325,8573 Z"
   id="path371" />
        <path
   fill="none"
   stroke="rgb(0,0,0)"
   stroke-width="35"
   stroke-linejoin="miter"
   d="M 7325,8573 L 7537,8573 7537,8361 7325,8361 7325,8573 Z"
   id="path373" />
        <path
   fill="rgb(255,255,255)"
   stroke="none"
   d="M 7408,8573 L 7620,8573 7620,8361 7408,8361 7408,8573 Z"
   id="path375" />
        <path
   fill="none"
   stroke="rgb(0,0,0)"
   stroke-width="35"
   stroke-linejoin="miter"
   d="M 7408,8573 L 7620,8573 7620,8361 7408,8361 7408,8573 Z"
   id="path377" />
        <path
   fill="rgb(255,255,255)"
   stroke="none"
   d="M 7823,8573 L 8035,8573 8035,8361 7823,8361 7823,8573 Z"
   id="path379" />
        <path
   fill="none"
   stroke="rgb(0,0,0)"
   stroke-width="35"
   stroke-linejoin="miter"
   d="M 7823,8573 L 8035,8573 8035,8361 7823,8361 7823,8573 Z"
   id="path381" />
        <path
   fill="rgb(255,255,255)"
   stroke="none"
   d="M 10188,8573 L 10400,8573 10400,8361 10188,8361 10188,8573 Z"
   id="path383" />
        <path
   fill="none"
   stroke="rgb(0,0,0)"
   stroke-width="35"
   stroke-linejoin="miter"
   d="M 10188,8573 L 10400,8573 10400,8361 10188,8361 10188,8573 Z"
   id="path385" />
        <path
   fill="rgb(255,255,255)"
   stroke="none"
   d="M 11059,8573 L 11271,8573 11271,8361 11059,8361 11059,8573 Z"
   id="path387" />
        <path
   fill="none"
   stroke="rgb(0,0,0)"
   stroke-width="35"
   stroke-linejoin="miter"
   d="M 11059,8573 L 11271,8573 11271,8361 11059,8361 11059,8573 Z"
   id="path389" />
        <path
   fill="rgb(255,255,255)"
   stroke="none"
   d="M 11059,8573 L 11271,8573 11271,8361 11059,8361 11059,8573 Z"
   id="path391" />
        <path
   fill="none"
   stroke="rgb(0,0,0)"
   stroke-width="35"
   stroke-linejoin="miter"
   d="M 11059,8573 L 11271,8573 11271,8361 11059,8361 11059,8573 Z"
   id="path393" />
        <path
   fill="rgb(255,255,255)"
   stroke="none"
   d="M 6454,8573 L 6665,8573 6665,8361 6454,8361 6454,8573 Z"
   id="path395" />
        <path
   fill="none"
   stroke="rgb(0,0,0)"
   stroke-width="35"
   stroke-linejoin="miter"
   d="M 6454,8573 L 6665,8573 6665,8361 6454,8361 6454,8573 Z"
   id="path397" />
        <path
   fill="rgb(255,255,255)"
   stroke="none"
   d="M 6246,8573 L 6458,8573 6458,8361 6246,8361 6246,8573 Z"
   id="path399" />
        <path
   fill="none"
   stroke="rgb(0,0,0)"
   stroke-width="35"
   stroke-linejoin="miter"
   d="M 6246,8573 L 6458,8573 6458,8361 6246,8361 6246,8573 Z"
   id="path401" />
        <path
   fill="rgb(255,255,255)"
   stroke="none"
   d="M 6329,8573 L 6541,8573 6541,8361 6329,8361 6329,8573 Z"
   id="path403" />
        <path
   fill="none"
   stroke="rgb(0,0,0)"
   stroke-width="35"
   stroke-linejoin="miter"
   d="M 6329,8573 L 6541,8573 6541,8361 6329,8361 6329,8573 Z"
   id="path405" />
        <path
   fill="rgb(255,255,255)"
   stroke="none"
   d="M 6578,8573 L 6790,8573 6790,8361 6578,8361 6578,8573 Z"
   id="path407" />
        <path
   fill="none"
   stroke="rgb(0,0,0)"
   stroke-width="35"
   stroke-linejoin="miter"
   d="M 6578,8573 L 6790,8573 6790,8361 6578,8361 6578,8573 Z"
   id="path409" />
        <path
   fill="rgb(255,255,255)"
   stroke="none"
   d="M 6661,8573 L 6873,8573 6873,8361 6661,8361 6661,8573 Z"
   id="path411" />
        <path
   fill="none"
   stroke="rgb(0,0,0)"
   stroke-width="35"
   stroke-linejoin="miter"
   d="M 6661,8573 L 6873,8573 6873,8361 6661,8361 6661,8573 Z"
   id="path413" />
        <path
   fill="rgb(255,255,255)"
   stroke="none"
   d="M 6786,8573 L 6997,8573 6997,8361 6786,8361 6786,8573 Z"
   id="path415" />
        <path
   fill="none"
   stroke="rgb(0,0,0)"
   stroke-width="35"
   stroke-linejoin="miter"
   d="M 6786,8573 L 6997,8573 6997,8361 6786,8361 6786,8573 Z"
   id="path417" />
        <path
   fill="rgb(255,255,255)"
   stroke="none"
   d="M 11059,8573 L 11271,8573 11271,8361 11059,8361 11059,8573 Z"
   id="path419" />
        <path
   fill="none"
   stroke="rgb(0,0,0)"
   stroke-width="35"
   stroke-linejoin="miter"
   d="M 11059,8573 L 11271,8573 11271,8361 11059,8361 11059,8573 Z"
   id="path421" />
        <path
   fill="rgb(255,255,255)"
   stroke="none"
   d="M 11059,8573 L 11271,8573 11271,8361 11059,8361 11059,8573 Z"
   id="path423" />
        <path
   fill="none"
   stroke="rgb(0,0,0)"
   stroke-width="35"
   stroke-linejoin="miter"
   d="M 11059,8573 L 11271,8573 11271,8361 11059,8361 11059,8573 Z"
   id="path425" />
        <path
   fill="rgb(255,255,255)"
   stroke="none"
   d="M 11059,8573 L 11271,8573 11271,8361 11059,8361 11059,8573 Z"
   id="path427" />
        <path
   fill="none"
   stroke="rgb(0,0,0)"
   stroke-width="35"
   stroke-linejoin="miter"
   d="M 11059,8573 L 11271,8573 11271,8361 11059,8361 11059,8573 Z"
   id="path429" />
        <path
   fill="none"
   stroke="rgb(0,0,0)"
   stroke-width="28"
   stroke-linejoin="miter"
   stroke-linecap="square"
   d="M 2045,10863 L 2045,1476"
   id="path431" />
        <path
   fill="none"
   stroke="rgb(0,0,0)"
   stroke-width="28"
   stroke-linejoin="miter"
   stroke-linecap="square"
   d="M 14642,10863 L 14642,1476"
   id="path433" />
        <path
   fill="none"
   stroke="rgb(0,0,0)"
   stroke-width="28"
   stroke-linejoin="miter"
   stroke-linecap="square"
   d="M 2045,10863 L 14642,10863"
   id="path435" />
        <path
   fill="none"
   stroke="rgb(0,0,0)"
   stroke-width="28"
   stroke-linejoin="miter"
   stroke-linecap="square"
   d="M 2045,1476 L 14642,1476"
   id="path437" />
        <g
   style="opacity: 0.8"
   id="g443">
         <path
   fill="rgb(255,255,255)"
   stroke="none"
   d="M 11279,3312 L 14395,3312 C 14442,3312 14466,3288 14466,3241 L 14466,1723 C 14466,1676 14442,1652 14395,1652 L 11279,1652 C 11232,1652 11209,1676 11209,1723 L 11209,3241 C 11209,3288 11232,3312 11279,3312 L 11279,3312 Z"
   id="path439" />
         <path
   fill="none"
   stroke="rgb(204,204,204)"
   stroke-width="35"
   stroke-linejoin="miter"
   d="M 11279,3312 L 14395,3312 C 14442,3312 14466,3288 14466,3241 L 14466,1723 C 14466,1676 14442,1652 14395,1652 L 11279,1652 C 11232,1652 11209,1676 11209,1723 L 11209,3241 C 11209,3288 11232,3312 11279,3312 Z"
   id="path441" />
        </g>
        <path
   fill="none"
   stroke="rgb(255,255,255)"
   stroke-width="53"
   stroke-linejoin="round"
   stroke-linecap="square"
   d="M 11350,1938 L 11703,1938 12055,1938"
   id="path445" />
        <path
   fill="rgb(255,255,255)"
   stroke="none"
   d="M 11597,2044 L 11809,2044 11809,1832 11597,1832 11597,2044 Z"
   id="path447" />
        <path
   fill="none"
   stroke="rgb(0,0,0)"
   stroke-width="35"
   stroke-linejoin="miter"
   d="M 11597,2044 L 11809,2044 11809,1832 11597,1832 11597,2044 Z"
   id="path449" />
        <path
   fill="rgb(0,0,0)"
   stroke="none"
   d="M 12565,1824 L 12565,1861 C 12553,1850 12541,1842 12527,1836 12514,1831 12500,1828 12485,1828 12456,1828 12433,1837 12418,1855 12402,1873 12394,1899 12394,1933 12394,1967 12402,1993 12418,2011 12433,2029 12456,2038 12485,2038 12500,2038 12514,2035 12527,2030 12541,2024 12553,2016 12565,2005 L 12565,2042 C 12553,2050 12540,2056 12526,2060 12513,2065 12498,2067 12483,2067 12444,2067 12413,2055 12391,2031 12369,2007 12357,1974 12357,1933 12357,1892 12369,1859 12391,1836 12413,1812 12444,1800 12483,1800 12498,1800 12513,1802 12527,1806 12540,1810 12553,1816 12565,1824 L 12565,1824 Z"
   id="path451" />
        <path
   fill="rgb(0,0,0)"
   stroke="none"
   d="M 12617,1794 L 12649,1794 12649,2062 12617,2062 12617,1794 12617,1794 Z"
   id="path453" />
        <path
   fill="rgb(0,0,0)"
   stroke="none"
   d="M 12803,1965 C 12777,1965 12760,1968 12750,1973 12740,1979 12735,1989 12735,2003 12735,2015 12739,2024 12746,2030 12753,2037 12763,2040 12776,2040 12794,2040 12808,2034 12819,2021 12829,2009 12834,1992 12834,1972 L 12834,1965 12803,1965 12803,1965 Z M 12866,1952 L 12866,2062 12834,2062 12834,2032 C 12827,2044 12818,2053 12807,2058 12797,2064 12783,2067 12768,2067 12748,2067 12732,2061 12721,2050 12709,2039 12703,2024 12703,2005 12703,1984 12710,1967 12725,1956 12739,1945 12761,1940 12790,1940 L 12834,1940 12834,1937 C 12834,1922 12830,1911 12820,1903 12810,1895 12797,1891 12780,1891 12769,1891 12758,1892 12747,1895 12737,1898 12727,1901 12717,1907 L 12717,1877 C 12729,1873 12740,1870 12751,1867 12762,1865 12773,1864 12783,1864 12811,1864 12832,1871 12845,1886 12859,1900 12866,1922 12866,1952 L 12866,1952 Z"
   id="path455" />
        <path
   fill="rgb(0,0,0)"
   stroke="none"
   d="M 12962,2033 L 12962,2135 12930,2135 12930,1869 12962,1869 12962,1898 C 12969,1886 12977,1878 12987,1872 12997,1867 13010,1864 13024,1864 13047,1864 13066,1873 13081,1892 13095,1911 13103,1935 13103,1965 13103,1996 13095,2020 13081,2039 13066,2057 13047,2067 13024,2067 13010,2067 12997,2064 12987,2058 12977,2053 12969,2044 12962,2033 L 12962,2033 Z M 13070,1965 C 13070,1942 13065,1924 13055,1910 13046,1897 13033,1891 13016,1891 12999,1891 12986,1897 12976,1910 12967,1924 12962,1942 12962,1965 12962,1989 12967,2007 12976,2020 12986,2033 12999,2040 13016,2040 13033,2040 13046,2033 13055,2020 13065,2007 13070,1989 13070,1965 L 13070,1965 Z"
   id="path457" />
        <path
   fill="rgb(0,0,0)"
   stroke="none"
   d="M 13186,2033 L 13186,2135 13154,2135 13154,1869 13186,1869 13186,1898 C 13193,1886 13201,1878 13211,1872 13221,1867 13233,1864 13248,1864 13271,1864 13290,1873 13305,1892 13319,1911 13327,1935 13327,1965 13327,1996 13319,2020 13305,2039 13290,2057 13271,2067 13248,2067 13233,2067 13221,2064 13211,2058 13201,2053 13193,2044 13186,2033 L 13186,2033 Z M 13294,1965 C 13294,1942 13289,1924 13279,1910 13270,1897 13257,1891 13240,1891 13223,1891 13210,1897 13200,1910 13191,1924 13186,1942 13186,1965 13186,1989 13191,2007 13200,2020 13210,2033 13223,2040 13240,2040 13257,2040 13270,2033 13279,2020 13289,2007 13294,1989 13294,1965 L 13294,1965 Z"
   id="path459" />
        <path
   fill="rgb(0,0,0)"
   stroke="none"
   d="M 13379,1869 L 13411,1869 13411,2062 13379,2062 13379,1869 13379,1869 Z M 13379,1794 L 13411,1794 13411,1834 13379,1834 13379,1794 13379,1794 Z"
   id="path461" />
        <path
   fill="rgb(0,0,0)"
   stroke="none"
   d="M 13638,1945 L 13638,2062 13606,2062 13606,1946 C 13606,1928 13602,1914 13595,1905 13588,1896 13577,1892 13563,1892 13546,1892 13533,1897 13523,1908 13513,1919 13508,1934 13508,1953 L 13508,2062 13476,2062 13476,1869 13508,1869 13508,1899 C 13515,1887 13524,1878 13535,1873 13545,1867 13557,1864 13570,1864 13592,1864 13609,1871 13621,1885 13632,1898 13638,1918 13638,1945 L 13638,1945 Z"
   id="path463" />
        <path
   fill="rgb(0,0,0)"
   stroke="none"
   d="M 13828,1963 C 13828,1940 13823,1922 13813,1910 13804,1897 13791,1891 13774,1891 13757,1891 13743,1897 13734,1910 13724,1922 13720,1940 13720,1963 13720,1986 13724,2003 13734,2016 13743,2029 13757,2035 13774,2035 13791,2035 13804,2029 13813,2016 13823,2003 13828,1986 13828,1963 L 13828,1963 Z M 13859,2038 C 13859,2070 13852,2095 13838,2111 13823,2127 13801,2135 13771,2135 13759,2135 13749,2134 13739,2132 13729,2131 13720,2128 13710,2125 L 13710,2094 C 13720,2099 13729,2103 13738,2105 13747,2108 13756,2109 13766,2109 13786,2109 13802,2103 13812,2092 13823,2082 13828,2065 13828,2043 L 13828,2028 C 13821,2039 13813,2048 13803,2053 13792,2059 13780,2062 13766,2062 13742,2062 13723,2053 13709,2035 13694,2017 13687,1993 13687,1963 13687,1933 13694,1909 13709,1891 13723,1873 13742,1864 13766,1864 13780,1864 13792,1867 13803,1872 13813,1878 13821,1887 13828,1898 L 13828,1869 13859,1869 13859,2038 13859,2038 Z"
   id="path465" />
        <path
   fill="none"
   stroke="rgb(255,255,255)"
   stroke-width="53"
   stroke-linejoin="round"
   stroke-linecap="square"
   d="M 11350,2456 L 11703,2456 12055,2456"
   id="path467" />
        <path
   fill="rgb(255,255,255)"
   stroke="none"
   d="M 11703,2562 C 11731,2562 11758,2551 11778,2531 11797,2511 11809,2484 11809,2456 11809,2428 11797,2401 11778,2381 11758,2361 11731,2350 11703,2350 11675,2350 11648,2361 11628,2381 11608,2401 11597,2428 11597,2456 11597,2484 11608,2511 11628,2531 11648,2551 11675,2562 11703,2562 L 11703,2562 Z"
   id="path469" />
        <path
   fill="none"
   stroke="rgb(0,0,0)"
   stroke-width="35"
   stroke-linejoin="round"
   d="M 11703,2562 C 11731,2562 11758,2551 11778,2531 11797,2511 11809,2484 11809,2456 11809,2428 11797,2401 11778,2381 11758,2361 11731,2350 11703,2350 11675,2350 11648,2361 11628,2381 11608,2401 11597,2428 11597,2456 11597,2484 11608,2511 11628,2531 11648,2551 11675,2562 11703,2562 Z"
   id="path471" />
        <path
   fill="rgb(0,0,0)"
   stroke="none"
   d="M 12565,2342 L 12565,2379 C 12553,2368 12541,2360 12527,2354 12514,2349 12500,2346 12485,2346 12456,2346 12433,2355 12418,2373 12402,2391 12394,2417 12394,2451 12394,2485 12402,2511 12418,2529 12433,2547 12456,2556 12485,2556 12500,2556 12514,2553 12527,2548 12541,2542 12553,2534 12565,2523 L 12565,2560 C 12553,2568 12540,2574 12526,2578 12513,2582 12498,2584 12483,2584 12444,2584 12413,2572 12391,2549 12369,2525 12357,2492 12357,2451 12357,2410 12369,2377 12391,2353 12413,2329 12444,2318 12483,2318 12498,2318 12513,2320 12527,2324 12540,2328 12553,2334 12565,2342 L 12565,2342 Z"
   id="path473" />
        <path
   fill="rgb(0,0,0)"
   stroke="none"
   d="M 12692,2409 C 12675,2409 12662,2415 12652,2429 12642,2442 12637,2460 12637,2483 12637,2506 12642,2524 12652,2538 12661,2551 12675,2557 12692,2557 12709,2557 12722,2551 12732,2537 12742,2524 12747,2506 12747,2483 12747,2460 12742,2442 12732,2429 12722,2415 12709,2409 12692,2409 L 12692,2409 Z M 12692,2382 C 12720,2382 12741,2391 12757,2409 12773,2427 12781,2451 12781,2483 12781,2515 12773,2539 12757,2557 12741,2575 12720,2584 12692,2584 12664,2584 12643,2575 12627,2557 12611,2539 12603,2515 12603,2483 12603,2451 12611,2427 12627,2409 12643,2391 12664,2382 12692,2382 L 12692,2382 Z"
   id="path475" />
        <path
   fill="rgb(0,0,0)"
   stroke="none"
   d="M 12824,2469 L 12916,2469 12916,2497 12824,2497 12824,2469 12824,2469 Z"
   id="path477" />
        <path
   fill="rgb(0,0,0)"
   stroke="none"
   d="M 13079,2416 C 13075,2414 13071,2412 13067,2412 13063,2411 13058,2410 13053,2410 13035,2410 13022,2416 13012,2427 13002,2439 12998,2456 12998,2478 L 12998,2579 12966,2579 12966,2386 12998,2386 12998,2416 C 13004,2405 13013,2396 13024,2390 13034,2385 13047,2382 13063,2382 13065,2382 13067,2382 13070,2382 13072,2382 13075,2383 13079,2384 L 13079,2416 13079,2416 Z"
   id="path479" />
        <path
   fill="rgb(0,0,0)"
   stroke="none"
   d="M 13179,2409 C 13162,2409 13148,2415 13138,2429 13129,2442 13124,2460 13124,2483 13124,2506 13129,2524 13138,2538 13148,2551 13162,2557 13179,2557 13196,2557 13209,2551 13219,2537 13229,2524 13234,2506 13234,2483 13234,2460 13229,2442 13219,2429 13209,2415 13196,2409 13179,2409 L 13179,2409 Z M 13179,2382 C 13206,2382 13228,2391 13244,2409 13259,2427 13267,2451 13267,2483 13267,2515 13259,2539 13244,2557 13228,2575 13206,2584 13179,2584 13151,2584 13129,2575 13114,2557 13098,2539 13090,2515 13090,2483 13090,2451 13098,2427 13114,2409 13129,2391 13151,2382 13179,2382 L 13179,2382 Z"
   id="path481" />
        <path
   fill="rgb(0,0,0)"
   stroke="none"
   d="M 13351,2332 L 13351,2386 13416,2386 13416,2411 13351,2411 13351,2516 C 13351,2532 13353,2542 13358,2546 13362,2551 13371,2553 13384,2553 L 13416,2553 13416,2579 13384,2579 C 13359,2579 13343,2575 13333,2566 13324,2557 13319,2540 13319,2516 L 13319,2411 13296,2411 13296,2386 13319,2386 13319,2332 13351,2332 13351,2332 Z"
   id="path483" />
        <path
   fill="rgb(0,0,0)"
   stroke="none"
   d="M 13546,2482 C 13520,2482 13502,2485 13493,2491 13483,2497 13478,2507 13478,2521 13478,2532 13481,2541 13489,2548 13496,2554 13506,2558 13519,2558 13537,2558 13551,2552 13561,2539 13572,2527 13577,2510 13577,2489 L 13577,2482 13546,2482 13546,2482 Z M 13609,2469 L 13609,2579 13577,2579 13577,2550 C 13570,2562 13561,2570 13550,2576 13539,2582 13526,2584 13511,2584 13491,2584 13475,2579 13464,2568 13452,2557 13446,2542 13446,2523 13446,2501 13453,2485 13468,2474 13482,2463 13504,2458 13533,2458 L 13577,2458 13577,2454 C 13577,2440 13573,2429 13563,2421 13553,2413 13540,2409 13523,2409 13512,2409 13501,2410 13490,2413 13480,2415 13470,2419 13460,2425 L 13460,2395 C 13472,2391 13483,2387 13494,2385 13505,2383 13515,2382 13526,2382 13554,2382 13575,2389 13588,2404 13602,2418 13609,2440 13609,2469 L 13609,2469 Z"
   id="path485" />
        <path
   fill="rgb(0,0,0)"
   stroke="none"
   d="M 13706,2332 L 13706,2386 13771,2386 13771,2411 13706,2411 13706,2516 C 13706,2532 13708,2542 13712,2546 13716,2551 13725,2553 13738,2553 L 13771,2553 13771,2579 13738,2579 C 13714,2579 13697,2575 13688,2566 13678,2557 13674,2540 13674,2516 L 13674,2411 13651,2411 13651,2386 13674,2386 13674,2332 13706,2332 13706,2332 Z"
   id="path487" />
        <path
   fill="rgb(0,0,0)"
   stroke="none"
   d="M 13813,2386 L 13844,2386 13844,2579 13813,2579 13813,2386 13813,2386 Z M 13813,2311 L 13844,2311 13844,2351 13813,2351 13813,2311 13813,2311 Z"
   id="path489" />
        <path
   fill="rgb(0,0,0)"
   stroke="none"
   d="M 14071,2463 L 14071,2579 14039,2579 14039,2464 C 14039,2446 14036,2432 14029,2423 14021,2414 14011,2409 13997,2409 13979,2409 13966,2415 13956,2426 13946,2437 13941,2451 13941,2470 L 13941,2579 13909,2579 13909,2386 13941,2386 13941,2416 C 13949,2405 13958,2396 13968,2390 13978,2385 13990,2382 14004,2382 14026,2382 14043,2389 14054,2402 14065,2416 14071,2436 14071,2463 L 14071,2463 Z"
   id="path491" />
        <path
   fill="rgb(0,0,0)"
   stroke="none"
   d="M 14261,2481 C 14261,2458 14256,2440 14247,2427 14237,2415 14224,2408 14207,2408 14190,2408 14177,2415 14167,2427 14158,2440 14153,2458 14153,2481 14153,2503 14158,2521 14167,2534 14177,2546 14190,2553 14207,2553 14224,2553 14237,2546 14247,2534 14256,2521 14261,2503 14261,2481 L 14261,2481 Z M 14293,2555 C 14293,2588 14286,2613 14271,2629 14256,2645 14234,2653 14204,2653 14193,2653 14182,2652 14172,2650 14163,2649 14153,2646 14144,2643 L 14144,2612 C 14153,2617 14162,2620 14171,2623 14180,2625 14190,2627 14199,2627 14220,2627 14235,2621 14246,2610 14256,2599 14261,2583 14261,2561 L 14261,2545 C 14255,2557 14246,2565 14236,2571 14226,2577 14214,2579 14199,2579 14176,2579 14157,2570 14142,2552 14128,2534 14120,2510 14120,2481 14120,2451 14128,2427 14142,2409 14157,2391 14176,2382 14199,2382 14214,2382 14226,2385 14236,2390 14246,2396 14255,2404 14261,2416 L 14261,2386 14293,2386 14293,2555 14293,2555 Z"
   id="path493" />
        <path
   fill="none"
   stroke="rgb(255,255,255)"
   stroke-width="53"
   stroke-linejoin="round"
   stroke-linecap="square"
   d="M 11350,2974 L 11703,2974 12055,2974"
   id="path495" />
        <path
   fill="none"
   stroke="rgb(0,0,0)"
   stroke-width="35"
   stroke-linejoin="round"
   d="M 11597,3079 L 11809,2868"
   id="path497" />
        <path
   fill="none"
   stroke="rgb(0,0,0)"
   stroke-width="35"
   stroke-linejoin="round"
   d="M 11597,2868 L 11809,3079"
   id="path499" />
        <path
   fill="rgb(0,0,0)"
   stroke="none"
   d="M 12372,2840 L 12520,2840 12520,2869 12407,2869 12407,2945 12509,2945 12509,2974 12407,2974 12407,3097 12372,3097 12372,2840 12372,2840 Z"
   id="path501" />
        <path
   fill="rgb(0,0,0)"
   stroke="none"
   d="M 12629,3000 C 12604,3000 12586,3003 12576,3009 12566,3015 12561,3025 12561,3039 12561,3050 12565,3059 12572,3066 12580,3072 12590,3076 12603,3076 12620,3076 12634,3069 12645,3057 12656,3044 12661,3028 12661,3007 L 12661,3000 12629,3000 12629,3000 Z M 12693,2987 L 12693,3097 12661,3097 12661,3068 C 12654,3079 12645,3088 12634,3094 12623,3099 12610,3102 12594,3102 12574,3102 12559,3097 12547,3085 12535,3074 12530,3060 12530,3041 12530,3019 12537,3003 12551,2992 12566,2981 12588,2975 12616,2975 L 12661,2975 12661,2972 C 12661,2958 12656,2946 12646,2938 12637,2930 12623,2926 12606,2926 12595,2926 12584,2928 12574,2930 12563,2933 12553,2937 12544,2942 L 12544,2913 C 12555,2908 12567,2905 12577,2903 12588,2901 12599,2900 12609,2900 12637,2900 12658,2907 12672,2921 12686,2936 12693,2958 12693,2987 L 12693,2987 Z"
   id="path503" />
        <path
   fill="rgb(0,0,0)"
   stroke="none"
   d="M 12758,2904 L 12789,2904 12789,3097 12758,3097 12758,2904 12758,2904 Z M 12758,2829 L 12789,2829 12789,2869 12758,2869 12758,2829 12758,2829 Z"
   id="path505" />
        <path
   fill="rgb(0,0,0)"
   stroke="none"
   d="M 12856,2829 L 12887,2829 12887,3097 12856,3097 12856,2829 12856,2829 Z"
   id="path507" />
       </g>
      </g>
      <g
   class="com.sun.star.drawing.CustomShape"
   id="g517">
       <g
   id="id4">
        <rect
   class="BoundingBox"
   stroke="none"
   fill="none"
   x="4368"
   y="2021"
   width="752"
   height="259"
   id="rect512" />
        <path
   fill="none"
   stroke="rgb(0,0,0)"
   d="M 5118,2032 C 5120,2094 5090,2157 5059,2156 L 4809,2153 C 4778,2152 4749,2215 4751,2278 4749,2215 4716,2152 4685,2151 L 4435,2148 C 4404,2147 4371,2084 4369,2022"
   id="path514" />
       </g>
      </g>
      <g
   class="com.sun.star.drawing.CustomShape"
   id="g524">
       <g
   id="id5">
        <rect
   class="BoundingBox"
   stroke="none"
   fill="none"
   x="8025"
   y="2069"
   width="752"
   height="259"
   id="rect519" />
        <path
   fill="none"
   stroke="rgb(0,0,0)"
   d="M 8775,2080 C 8777,2142 8747,2205 8716,2204 L 8466,2201 C 8435,2200 8406,2263 8408,2326 8406,2263 8373,2200 8342,2199 L 8092,2196 C 8061,2195 8028,2132 8026,2070"
   id="path521" />
       </g>
      </g>
     </g>
    </g>
   </g>
  </g>
 </g><path
   style="fill:none;stroke:#000000;stroke-width:42.7165px;stroke-linecap:butt;stroke-linejoin:miter;stroke-opacity:1;marker-end:url(#marker1923-3)"
   d="m 3874.9864,7496.7689 c 0,0 599.5186,499.1707 1256.0377,664.5302 l 777.9086,195.9343"
   id="path1607-7"
   sodipodi:nodetypes="csc"
   inkscape:transform-center-x="488.22005"
   inkscape:transform-center-y="169.29466" /><path
   style="fill:none;stroke:#000000;stroke-width:42.7165px;stroke-linecap:butt;stroke-linejoin:miter;stroke-opacity:1;marker-end:url(#marker1923-3-5)"
   d="m 7523.3665,9821.7958 c 0,0 283.2729,296.5912 936.1268,475.8742 l 441.3818,121.21"
   id="path1607-7-5"
   sodipodi:nodetypes="csc"
   inkscape:transform-center-x="488.22005"
   inkscape:transform-center-y="169.29466" />
<text
   xml:space="preserve"
   style="font-style:normal;font-weight:normal;font-size:1058.33px;line-height:1.25;font-family:sans-serif;fill:#000000;fill-opacity:1;stroke:none;stroke-width:746.707"
   x="4432.2559"
   y="3136.1616"
   id="text11475"><tspan
     sodipodi:role="line"
     id="tspan11473"
     style="stroke-width:746.707"
     x="4432.2559"
     y="3136.1616">3</tspan></text><text
   xml:space="preserve"
   style="font-style:normal;font-weight:normal;font-size:1058.33px;line-height:1.25;font-family:sans-serif;fill:#000000;fill-opacity:1;stroke:none;stroke-width:746.707"
   x="8041.6108"
   y="3147.4409"
   id="text21775"><tspan
     sodipodi:role="line"
     id="tspan21773"
     style="stroke-width:746.707"
     x="8041.6108"
     y="3147.4409">4</tspan></text><text
   xml:space="preserve"
   style="font-style:normal;font-weight:normal;font-size:1058.33px;line-height:1.25;font-family:sans-serif;fill:#000000;fill-opacity:1;stroke:none;stroke-width:746.707"
   x="11026.285"
   y="7147.7661"
   id="text27719"><tspan
     sodipodi:role="line"
     id="tspan27717"
     style="stroke-width:746.707"
     x="11026.285"
     y="7147.7661">1</tspan></text><path
   style="fill:none;stroke:#000000;stroke-width:26.49999943;stroke-linecap:butt;stroke-linejoin:miter;stroke-opacity:1;stroke-miterlimit:4;stroke-dasharray:none;marker-end:url(#Arrow2Mend)"
   d="m 2045,6279 11238.879,16.0216 v 0 l 11.483,1498.5561"
   id="path38990" /><path
   style="fill:none;stroke:#000000;stroke-width:42.7165px;stroke-linecap:butt;stroke-linejoin:miter;stroke-opacity:1;marker-end:url(#marker1923)"
   d="m 9724.3802,3883.4978 c 0,0 1016.2488,-370.7211 630.1238,-926.8403 l -337.364,-485.8908"
   id="path1607"
   sodipodi:nodetypes="csc" /><text
   xml:space="preserve"
   style="font-style:normal;font-weight:normal;font-size:1058.33px;line-height:1.25;font-family:sans-serif;fill:#000000;fill-opacity:1;stroke:none;stroke-width:746.707"
   x="8919.7051"
   y="4568.3247"
   id="text12340"><tspan
     sodipodi:role="line"
     id="tspan12338"
     style="stroke-width:746.707"
     x="8919.7051"
     y="4568.3247">N</tspan></text><text
   xml:space="preserve"
   style="font-style:normal;font-weight:normal;font-size:1058.33px;line-height:1.25;font-family:sans-serif;fill:#000000;fill-opacity:1;stroke:none;stroke-width:746.707"
   x="3164.1179"
   y="7478.0146"
   id="text26348"><tspan
     sodipodi:role="line"
     id="tspan26346"
     style="stroke-width:746.707"
     x="3164.1179"
     y="7478.0146">H</tspan></text><text
   xml:space="preserve"
   style="font-style:normal;font-weight:normal;font-size:1058.33px;line-height:1.25;font-family:sans-serif;fill:#000000;fill-opacity:1;stroke:none;stroke-width:746.707"
   x="6879.377"
   y="9779.8096"
   id="text43926"><tspan
     sodipodi:role="line"
     id="tspan43924"
     style="stroke-width:746.707"
     x="6879.377"
     y="9779.8096">L</tspan></text></svg>
